<?xml version="1.0" encoding="utf-8"?>
<!-- Generator: Adobe Illustrator 24.3.0, SVG Export Plug-In . SVG Version: 6.00 Build 0)  -->
<svg version="1.1" id="Layer_1" xmlns="http://www.w3.org/2000/svg" xmlns:xlink="http://www.w3.org/1999/xlink" x="0px" y="0px"
	 viewBox="0 0 300 300" enable-background="new 0 0 300 300" xml:space="preserve">
<g>
	<g>
		<g>
			<path fill="#9AE8CE" d="M232.255,28.762H70.915c-2.297,0-4.156,1.859-4.156,4.154v221.719c0,2.294,1.859,4.153,4.156,4.153h8.092
				l3.238,12.449h138.678l3.238-12.449h8.093c2.285,0,4.15-1.859,4.15-4.153V32.916C236.405,30.621,234.54,28.762,232.255,28.762z"
				/>
		</g>
		<g>
			<path fill="#AEF4DB" d="M83.163,258.788c-2.291,0-4.156-1.859-4.156-4.153V32.916c0-2.295,1.865-4.154,4.156-4.154H70.915
				c-2.297,0-4.156,1.859-4.156,4.154v221.719c0,2.294,1.859,4.153,4.156,4.153h8.092l3.238,12.449h12.248l-3.232-12.449H83.163z"/>
		</g>
		<g>
			<path fill="#F4F4F4" d="M89.812,239.46c0,2.314-1.871,4.188-4.186,4.188c-2.315,0-4.191-1.874-4.191-4.188
				c0-2.315,1.876-4.189,4.191-4.189C87.941,235.272,89.812,237.145,89.812,239.46z"/>
		</g>
		<g>
			<path fill="#F4F4F4" d="M221.889,239.46c0,2.314-1.877,4.188-4.185,4.188c-2.321,0-4.191-1.874-4.191-4.188
				c0-2.315,1.87-4.189,4.191-4.189C220.013,235.272,221.889,237.145,221.889,239.46z"/>
		</g>
		<g>
			<path fill="#F4F4F4" d="M89.812,47.769c0,2.313-1.871,4.188-4.186,4.188c-2.315,0-4.191-1.875-4.191-4.188
				c0-2.315,1.876-4.188,4.191-4.188C87.941,43.581,89.812,45.454,89.812,47.769z"/>
		</g>
		<g>
			<path fill="#F4F4F4" d="M221.889,47.769c0,2.313-1.877,4.188-4.185,4.188c-2.321,0-4.191-1.875-4.191-4.188
				c0-2.315,1.87-4.188,4.191-4.188C220.013,43.581,221.889,45.454,221.889,47.769z"/>
		</g>
		<g>
			
				<ellipse transform="matrix(0.2898 -0.9571 0.9571 0.2898 -68.0356 275.1305)" fill="#FFDA88" cx="151.366" cy="183.408" rx="46.305" ry="46.305"/>
		</g>
		<g>
			<path fill="#FFE2A9" d="M118.848,183.408c0-23.225,17.114-42.401,39.414-45.737c-2.255-0.337-4.547-0.568-6.896-0.568
				c-25.574,0-46.305,20.731-46.305,46.305c0,25.574,20.731,46.305,46.305,46.305c2.35,0,4.641-0.231,6.896-0.568
				C135.963,225.809,118.848,206.635,118.848,183.408z"/>
		</g>
		<g>
			<path fill="#F4F4F4" d="M162.987,183.408c0,6.299-5.109,11.405-11.402,11.405c-6.299,0-11.408-5.106-11.408-11.405
				c0-6.299,5.109-11.405,11.408-11.405C157.878,172.003,162.987,177.109,162.987,183.408z"/>
		</g>
		<g>
			<path fill="#F9F9F9" d="M147.755,183.408c0-4.964,3.191-9.143,7.619-10.712c-1.19-0.42-2.457-0.693-3.789-0.693
				c-6.299,0-11.408,5.106-11.408,11.405c0,6.299,5.109,11.405,11.408,11.405c1.332,0,2.599-0.273,3.789-0.693
				C150.946,192.551,147.755,188.372,147.755,183.408z"/>
		</g>
		<g>
			<path fill="#FFDA88" d="M181.711,88.035c0,16.638-13.492,30.129-30.126,30.129c-16.641,0-30.132-13.491-30.132-30.129
				c0-16.641,13.492-30.128,30.132-30.128C168.22,57.907,181.711,71.394,181.711,88.035z"/>
		</g>
		<g>
			<path fill="#FFE2A9" d="M130.878,88.035c0-15.034,11.023-27.458,25.42-29.724c-1.539-0.241-3.108-0.404-4.712-0.404
				c-16.641,0-30.132,13.487-30.132,30.128c0,16.638,13.492,30.129,30.132,30.129c1.604,0,3.173-0.161,4.712-0.404
				C141.9,115.493,130.878,103.065,130.878,88.035z"/>
		</g>
		<g>
			<path fill="#F4F4F4" d="M123.365,77.554h56.434c-1.35-3.617-3.363-6.898-5.902-9.706h-44.635
				C126.722,70.656,124.709,73.937,123.365,77.554z"/>
		</g>
		<g>
			<path fill="#F9F9F9" d="M129.261,67.848c-0.006,0.006-0.012,0.012-0.018,0.016c-0.622,0.692-1.219,1.413-1.776,2.162
				c-0.006,0.009-0.012,0.019-0.024,0.028c-0.557,0.75-1.083,1.527-1.575,2.329c-0.006,0.009-0.006,0.018-0.012,0.027
				c-0.491,0.802-0.941,1.63-1.355,2.479c-0.006,0.012-0.012,0.024-0.018,0.035c-0.409,0.842-0.775,1.705-1.107,2.588
				c-0.006,0.013-0.012,0.027-0.012,0.04h9.395c1.344-3.622,3.38-6.898,5.932-9.706H129.261z"/>
		</g>
		<g>
			<path fill="#F4F4F4" d="M121.453,88.035c0,1.668,0.172,3.293,0.432,4.887h59.4c0.255-1.594,0.426-3.219,0.426-4.887
				c0-1.644-0.166-3.245-0.421-4.819h-59.417C121.625,84.789,121.453,86.39,121.453,88.035z"/>
		</g>
		<g>
			<path fill="#F9F9F9" d="M121.873,92.831c0.006,0.03,0.006,0.061,0.012,0.09h9.407c-0.26-1.592-0.414-3.22-0.414-4.887
				c0-1.643,0.154-3.249,0.409-4.819h-9.413c0,0.008,0,0.015,0,0.021c-0.118,0.749-0.219,1.505-0.29,2.269
				c-0.071,0.836-0.13,1.675-0.13,2.529c0,0.863,0.059,1.712,0.13,2.557C121.654,91.347,121.755,92.093,121.873,92.831z"/>
		</g>
		<g>
			<path fill="#F4F4F4" d="M129.202,108.153h44.766c2.528-2.811,4.523-6.092,5.861-9.706h-56.487
				C124.673,102.062,126.674,105.343,129.202,108.153z"/>
		</g>
		<g>
			<path fill="#F9F9F9" d="M138.626,108.153c-2.534-2.809-4.552-6.089-5.89-9.706h-9.395c0,0.009-0.006,0.018,0,0.027
				c0.326,0.891,0.704,1.763,1.113,2.611c0.006,0.006,0.006,0.012,0.012,0.016c0.414,0.855,0.864,1.687,1.35,2.494
				c0.006,0.004,0.006,0.009,0.012,0.013c0.485,0.805,1.012,1.585,1.569,2.338c0.006,0.009,0.012,0.018,0.018,0.027
				c0.557,0.746,1.143,1.465,1.764,2.157c0.006,0.007,0.012,0.016,0.024,0.024H138.626z"/>
		</g>
		<g>
			<path fill="#FE6F80" d="M268.603,197.98c0.427-1.64-0.379-3.315-1.835-4.037c-0.213-0.101-0.438-0.189-0.669-0.249l-31.807-8.347
				c-0.237-0.062-0.468-0.098-0.698-0.113c-1.634-0.089-3.156,0.977-3.588,2.617l-6.749,25.725
				c-0.521-0.225-1.066-0.417-1.634-0.568c-4.671-1.226-9.229,0.725-10.182,4.36c-0.953,3.629,2.06,7.566,6.731,8.794
				c4.665,1.226,9.229-0.725,10.182-4.357c0.012-0.056,0.006-0.11,0.018-0.166c0.024-0.071,0.059-0.13,0.077-0.204l4.173-15.901
				l25.018,6.565l-2.581,9.827c-0.515-0.225-1.06-0.42-1.634-0.568c-4.671-1.229-9.223,0.722-10.176,4.357
				c-0.953,3.629,2.054,7.569,6.725,8.794c4.671,1.225,9.229-0.725,10.182-4.357c0.018-0.056,0.012-0.11,0.024-0.166
				c0.024-0.068,0.053-0.13,0.077-0.204L268.603,197.98z M234.404,198.743l1.504-5.719l25.011,6.565l-1.498,5.721L234.404,198.743z"
				/>
		</g>
		<g>
			<g>
				<path fill="#FFA1AA" d="M214.863,220.777c0.953-3.635,5.511-5.585,10.182-4.36c0.568,0.151,1.113,0.343,1.634,0.568
					l6.749-25.725c0.432-1.64,1.954-2.706,3.587-2.617c0.231,0.015,0.462,0.05,0.698,0.112l30.99,8.134
					c-0.071-1.249-0.793-2.389-1.924-2.948c-0.213-0.101-0.438-0.189-0.669-0.249l-31.808-8.347
					c-0.237-0.062-0.468-0.098-0.698-0.113c-1.634-0.089-3.156,0.977-3.587,2.617l-6.749,25.725
					c-0.521-0.225-1.066-0.417-1.634-0.568c-4.671-1.226-9.229,0.725-10.182,4.36c-0.752,2.853,0.971,5.872,4.002,7.643
					C214.744,223.672,214.489,222.204,214.863,220.777z"/>
			</g>
			<g>
				<path fill="#FFA1AA" d="M246.67,229.124c0.953-3.635,5.505-5.585,10.176-4.357c0.574,0.148,1.119,0.343,1.634,0.568
					l3.161-12.094l-4.031-1.057l-2.54,9.741c-0.515-0.225-1.06-0.42-1.634-0.568c-4.671-1.229-9.223,0.722-10.176,4.357
					c-0.752,2.853,0.971,5.878,3.996,7.643C246.551,232.019,246.291,230.551,246.67,229.124z"/>
			</g>
		</g>
		<g>
			<path fill="#FE6F80" d="M100.728,88.699c0.426-1.64-0.379-3.315-1.835-4.036c-0.213-0.102-0.438-0.188-0.669-0.249l-31.807-8.347
				c-0.237-0.062-0.468-0.098-0.699-0.111c-1.634-0.09-3.155,0.974-3.587,2.614l-6.748,25.726c-0.521-0.225-1.066-0.417-1.634-0.568
				c-4.671-1.226-9.229,0.727-10.182,4.358c-0.953,3.632,2.06,7.569,6.731,8.796c4.665,1.225,9.229-0.725,10.182-4.357
				c0.012-0.055,0.006-0.111,0.018-0.166c0.024-0.071,0.059-0.13,0.077-0.203l4.173-15.902l25.017,6.565l-2.581,9.825
				c-0.515-0.225-1.06-0.419-1.634-0.568c-4.671-1.227-9.223,0.725-10.176,4.357c-0.953,3.632,2.054,7.57,6.725,8.796
				c4.671,1.225,9.229-0.725,10.182-4.357c0.018-0.055,0.012-0.111,0.024-0.166c0.024-0.07,0.053-0.13,0.077-0.203L100.728,88.699z
				 M66.529,89.466l1.504-5.72l25.011,6.567l-1.498,5.72L66.529,89.466z"/>
		</g>
		<g>
			<g>
				<path fill="#FFA1AA" d="M45.584,112.129c0.953-3.632,5.511-5.584,10.182-4.359c0.574,0.151,1.119,0.344,1.634,0.568
					l6.755-25.726c0.432-1.64,1.953-2.704,3.582-2.614c0.231,0.013,0.468,0.049,0.698,0.111l31.808,8.347
					c0.172,0.045,0.331,0.114,0.491,0.182c0.396-1.621-0.397-3.263-1.841-3.975c-0.207-0.102-0.432-0.188-0.669-0.249l-31.807-8.347
					c-0.231-0.062-0.468-0.098-0.699-0.111c-1.628-0.09-3.149,0.974-3.581,2.614l-6.755,25.726c-0.515-0.225-1.06-0.417-1.634-0.568
					c-4.671-1.226-9.229,0.727-10.182,4.358c-0.55,2.104,0.261,4.296,1.918,6.019C45.412,113.447,45.412,112.784,45.584,112.129z"/>
			</g>
			<g>
				<path fill="#FFA1AA" d="M77.392,120.475c0.953-3.632,5.511-5.584,10.182-4.357c0.568,0.149,1.119,0.343,1.634,0.568
					l3.422-13.003l-2.865-0.864l-2.575,9.825c-0.515-0.225-1.065-0.419-1.634-0.568c-4.671-1.227-9.229,0.725-10.182,4.357
					c-0.551,2.104,0.255,4.298,1.918,6.02C77.22,121.796,77.22,121.133,77.392,120.475z"/>
			</g>
		</g>
		<g>
			<path fill="#FE6F80" d="M52.617,216.311h-8.128c-0.314,0-0.621,0.032-0.917,0.092c-0.509,0.107-0.983,0.311-1.415,0.574
				c-0.071,0.038-0.142,0.065-0.207,0.112c-0.148,0.098-0.272,0.219-0.408,0.334c-0.089,0.074-0.184,0.139-0.266,0.219
				c-0.119,0.118-0.213,0.258-0.32,0.388c-0.077,0.095-0.166,0.184-0.237,0.284c-0.077,0.118-0.136,0.255-0.201,0.379
				c-0.071,0.13-0.16,0.255-0.213,0.396c-0.024,0.053-0.035,0.113-0.053,0.169c-0.089,0.222-0.166,0.447-0.213,0.684
				c-0.059,0.296-0.095,0.601-0.095,0.915v18.233c-0.207-0.009-0.408-0.045-0.621-0.045c-5.364,0-9.709,3.22-9.709,7.196
				c0,3.975,4.345,7.196,9.709,7.196c5.369,0,9.714-3.22,9.714-7.196c0-0.346,0-20.835,0-20.835h3.582
				c2.516,0,4.547-2.039,4.552-4.546C57.164,218.347,55.133,216.311,52.617,216.311z"/>
		</g>
		<g>
			<path fill="#FFA1AA" d="M33.65,250.826c0-3.972,4.345-7.196,9.714-7.196c0.213,0,0.409,0.039,0.622,0.045v-18.233
				c0-0.314,0.03-0.619,0.089-0.915c0.053-0.237,0.13-0.459,0.213-0.684c0.024-0.053,0.03-0.116,0.053-0.169
				c0.059-0.139,0.142-0.263,0.213-0.393c0.071-0.127,0.124-0.261,0.207-0.379c0.071-0.104,0.16-0.189,0.237-0.284
				c0.101-0.133,0.201-0.272,0.32-0.391c0.077-0.08,0.178-0.142,0.266-0.219c0.13-0.112,0.26-0.237,0.403-0.334
				c0.065-0.045,0.142-0.074,0.207-0.113c0.432-0.263,0.906-0.468,1.421-0.571c0.296-0.062,0.604-0.095,0.917-0.095h8.128
				c0.172,0,0.331,0.036,0.497,0.053c0-0.029,0.012-0.059,0.012-0.089c-0.006-2.513-2.036-4.549-4.552-4.549h-8.128
				c-0.314,0-0.621,0.032-0.917,0.092c-0.509,0.107-0.983,0.311-1.415,0.574c-0.071,0.038-0.142,0.065-0.207,0.112
				c-0.148,0.098-0.272,0.219-0.408,0.334c-0.089,0.074-0.184,0.139-0.266,0.219c-0.119,0.118-0.213,0.258-0.32,0.388
				c-0.077,0.095-0.166,0.184-0.237,0.284c-0.077,0.118-0.136,0.255-0.201,0.379c-0.071,0.13-0.16,0.255-0.213,0.396
				c-0.024,0.053-0.035,0.113-0.053,0.169c-0.089,0.222-0.166,0.447-0.213,0.684c-0.059,0.296-0.095,0.601-0.095,0.915v18.233
				c-0.207-0.009-0.408-0.045-0.621-0.045c-5.364,0-9.709,3.22-9.709,7.196c0,2.465,1.675,4.635,4.221,5.932
				C33.721,251.738,33.65,251.288,33.65,250.826z"/>
		</g>
		<g>
			<path fill="#FE6F80" d="M262.505,29.073l-7.577,2.945c-0.29,0.114-0.562,0.255-0.817,0.42c-0.444,0.283-0.811,0.645-1.119,1.046
				c-0.047,0.062-0.106,0.115-0.148,0.179c-0.101,0.145-0.178,0.305-0.26,0.46c-0.053,0.102-0.118,0.197-0.166,0.302
				c-0.065,0.152-0.107,0.317-0.16,0.476c-0.036,0.117-0.089,0.229-0.113,0.352c-0.036,0.139-0.036,0.284-0.053,0.426
				c-0.024,0.148-0.053,0.295-0.059,0.446c0,0.058,0.012,0.117,0.012,0.178c0,0.238,0.012,0.473,0.048,0.713
				c0.053,0.298,0.136,0.593,0.249,0.887l6.612,16.993c-0.201,0.068-0.402,0.105-0.598,0.182c-5.002,1.946-7.885,6.524-6.441,10.228
				c1.439,3.704,6.654,5.131,11.656,3.187c5.002-1.945,7.885-6.524,6.447-10.228c-0.124-0.324-7.554-19.418-7.554-19.418
				l3.339-1.298c2.344-0.911,3.499-3.547,2.593-5.887C267.484,29.322,264.85,28.161,262.505,29.073z"/>
		</g>
		<g>
			<path fill="#FFA1AA" d="M255.893,67.012c-1.445-3.704,1.439-8.282,6.441-10.228c0.195-0.077,0.396-0.114,0.598-0.182
				l-6.612-16.993c-0.112-0.293-0.195-0.589-0.249-0.887c-0.035-0.24-0.048-0.475-0.048-0.713c0-0.061-0.012-0.12-0.012-0.178
				c0.006-0.151,0.036-0.297,0.059-0.446c0.018-0.142,0.018-0.287,0.053-0.426c0.024-0.123,0.077-0.235,0.112-0.352
				c0.053-0.16,0.095-0.324,0.16-0.476c0.047-0.105,0.113-0.2,0.166-0.302c0.083-0.155,0.16-0.315,0.26-0.46
				c0.042-0.064,0.101-0.117,0.148-0.179c0.308-0.401,0.675-0.764,1.119-1.046c0.255-0.166,0.527-0.306,0.817-0.42l7.577-2.945
				c0.402-0.157,0.817-0.231,1.225-0.271c-1.202-1.527-3.291-2.177-5.204-1.434l-7.577,2.945c-0.29,0.114-0.562,0.255-0.817,0.42
				c-0.444,0.283-0.811,0.645-1.119,1.046c-0.047,0.062-0.106,0.115-0.148,0.179c-0.101,0.145-0.178,0.305-0.26,0.46
				c-0.053,0.102-0.118,0.197-0.166,0.302c-0.065,0.152-0.107,0.317-0.16,0.476c-0.036,0.117-0.089,0.229-0.113,0.352
				c-0.036,0.139-0.036,0.284-0.053,0.426c-0.024,0.148-0.053,0.295-0.059,0.446c0,0.058,0.012,0.117,0.012,0.178
				c0,0.238,0.012,0.473,0.048,0.713c0.053,0.298,0.136,0.593,0.249,0.887l6.612,16.993c-0.201,0.068-0.402,0.105-0.598,0.182
				c-5.002,1.946-7.885,6.524-6.441,10.228c0.835,2.155,2.966,3.508,5.576,3.906C256.787,68.609,256.23,67.879,255.893,67.012z"/>
		</g>
	</g>
	<g>
		<g>
			<path fill="#161616" d="M232.255,263.335H70.915c-4.798,0-8.702-3.903-8.702-8.699V32.916c0-4.798,3.904-8.701,8.702-8.701
				h35.898c2.51,0,4.547,2.035,4.547,4.546c0,2.511-2.037,4.546-4.547,4.546H71.306v220.933h160.552V33.309h-104.9
				c-2.51,0-4.547-2.035-4.547-4.546c0-2.511,2.036-4.546,4.547-4.546h105.296c4.795,0,8.696,3.903,8.696,8.701v221.719
				C240.951,259.432,237.05,263.335,232.255,263.335z"/>
		</g>
		<g>
			<path fill="#161616" d="M220.924,275.784h-21.004c-2.51,0-4.547-2.035-4.547-4.547s2.036-4.546,4.547-4.546h17.487l0.873-3.357
				H84.889l0.873,3.357h94.013c2.51,0,4.547,2.035,4.547,4.546s-2.037,4.547-4.547,4.547h-97.53c-2.069,0-3.878-1.399-4.401-3.402
				l-3.238-12.449c-0.352-1.362-0.056-2.812,0.805-3.925c0.861-1.113,2.187-1.766,3.596-1.766h145.155
				c1.409,0,2.735,0.653,3.596,1.766c0.861,1.113,1.157,2.563,0.805,3.925l-3.238,12.449
				C224.802,274.386,222.993,275.784,220.924,275.784z"/>
		</g>
		<g>
			<path fill="#161616" d="M89.812,239.46c0,2.314-1.871,4.188-4.186,4.188c-2.315,0-4.191-1.874-4.191-4.188
				c0-2.315,1.876-4.189,4.191-4.189C87.941,235.272,89.812,237.145,89.812,239.46z"/>
		</g>
		<g>
			<path fill="#161616" d="M221.889,239.46c0,2.314-1.877,4.188-4.185,4.188c-2.321,0-4.191-1.874-4.191-4.188
				c0-2.315,1.87-4.189,4.191-4.189C220.013,235.272,221.889,237.145,221.889,239.46z"/>
		</g>
		<g>
			<path fill="#161616" d="M89.812,47.769c0,2.313-1.871,4.188-4.186,4.188c-2.315,0-4.191-1.875-4.191-4.188
				c0-2.315,1.876-4.188,4.191-4.188C87.941,43.581,89.812,45.454,89.812,47.769z"/>
		</g>
		<g>
			<path fill="#161616" d="M221.889,47.769c0,2.313-1.877,4.188-4.185,4.188c-2.321,0-4.191-1.875-4.191-4.188
				c0-2.315,1.87-4.188,4.191-4.188C220.013,43.581,221.889,45.454,221.889,47.769z"/>
		</g>
		<g>
			<path fill="#161616" d="M151.585,234.26c-28.039,0-50.852-22.812-50.852-50.852s22.812-50.852,50.852-50.852
				s50.852,22.812,50.852,50.852S179.625,234.26,151.585,234.26z M151.585,141.649c-23.025,0-41.759,18.733-41.759,41.759
				c0,23.025,18.733,41.759,41.759,41.759c23.025,0,41.759-18.733,41.759-41.759C193.344,160.383,174.61,141.649,151.585,141.649z"
				/>
		</g>
		<g>
			<path fill="#161616" d="M151.585,199.359c-8.797,0-15.954-7.156-15.954-15.951s7.157-15.951,15.954-15.951
				c8.794,0,15.948,7.156,15.948,15.951S160.379,199.359,151.585,199.359z M151.585,176.55c-3.783,0-6.861,3.077-6.861,6.858
				s3.078,6.858,6.861,6.858c3.78,0,6.855-3.077,6.855-6.858S155.365,176.55,151.585,176.55z"/>
		</g>
		<g>
			<path fill="#161616" d="M151.585,122.71c-19.121,0-34.679-15.556-34.679-34.675c0-19.12,15.557-34.674,34.679-34.674
				c19.118,0,34.673,15.554,34.673,34.674C186.258,107.154,170.703,122.71,151.585,122.71z M151.585,62.453
				C137.478,62.453,126,73.929,126,88.035c0,14.107,11.479,25.583,25.586,25.583c14.104,0,25.58-11.476,25.58-25.583
				C177.165,73.929,165.689,62.453,151.585,62.453z"/>
		</g>
		<g>
			<path fill="#161616" d="M123.365,77.554h56.434c-1.344-3.617-3.357-6.898-5.896-9.706h-44.636
				C126.728,70.656,124.715,73.937,123.365,77.554z"/>
		</g>
		<g>
			<path fill="#161616" d="M121.453,88.035c0,1.668,0.172,3.293,0.432,4.887h59.4c0.255-1.594,0.426-3.219,0.426-4.887
				c0-1.644-0.166-3.245-0.421-4.819h-59.417C121.625,84.789,121.453,86.39,121.453,88.035z"/>
		</g>
		<g>
			<path fill="#161616" d="M129.202,108.153h44.766c2.528-2.811,4.523-6.092,5.861-9.706h-56.487
				C124.673,102.062,126.674,105.343,129.202,108.153z"/>
		</g>
		<g>
			<path fill="#161616" d="M268.603,197.98c0.427-1.64-0.379-3.315-1.835-4.037c-0.213-0.101-0.438-0.189-0.669-0.249l-31.807-8.347
				c-0.237-0.062-0.468-0.098-0.698-0.113c-1.634-0.089-3.156,0.977-3.588,2.617l-6.749,25.725
				c-0.521-0.225-1.066-0.417-1.634-0.568c-4.671-1.226-9.229,0.725-10.182,4.36c-0.953,3.629,2.06,7.566,6.731,8.794
				c4.665,1.226,9.229-0.725,10.182-4.357c0.012-0.056,0.006-0.11,0.018-0.166c0.024-0.071,0.059-0.13,0.077-0.204l4.173-15.901
				l25.018,6.565l-2.581,9.827c-0.515-0.225-1.06-0.42-1.634-0.568c-4.671-1.229-9.223,0.722-10.176,4.357
				c-0.953,3.629,2.054,7.569,6.725,8.794c4.671,1.225,9.229-0.725,10.182-4.357c0.018-0.056,0.012-0.11,0.024-0.166
				c0.024-0.068,0.053-0.13,0.077-0.204L268.603,197.98z M234.404,198.743l1.504-5.719l25.011,6.565l-1.498,5.721L234.404,198.743z"
				/>
		</g>
		<g>
			<path fill="#161616" d="M100.728,88.699c0.426-1.64-0.379-3.315-1.835-4.036c-0.213-0.102-0.438-0.188-0.669-0.249l-31.807-8.347
				c-0.237-0.062-0.468-0.098-0.699-0.111c-1.634-0.09-3.155,0.974-3.587,2.614l-6.748,25.726c-0.521-0.225-1.066-0.417-1.634-0.568
				c-4.671-1.226-9.229,0.727-10.182,4.358c-0.953,3.632,2.06,7.569,6.731,8.796c4.665,1.225,9.229-0.725,10.182-4.357
				c0.012-0.055,0.006-0.111,0.018-0.166c0.024-0.071,0.059-0.13,0.077-0.203l4.173-15.902l25.017,6.565l-2.581,9.825
				c-0.515-0.225-1.06-0.419-1.634-0.568c-4.671-1.227-9.223,0.725-10.176,4.357c-0.953,3.632,2.054,7.57,6.725,8.796
				c4.671,1.225,9.229-0.725,10.182-4.357c0.018-0.055,0.012-0.111,0.024-0.166c0.024-0.07,0.053-0.13,0.077-0.203L100.728,88.699z
				 M66.529,89.466l1.504-5.72l25.011,6.567l-1.498,5.72L66.529,89.466z"/>
		</g>
		<g>
			<path fill="#161616" d="M52.617,216.311h-8.128c-0.314,0-0.621,0.032-0.917,0.092c-0.509,0.107-0.983,0.311-1.415,0.574
				c-0.071,0.038-0.142,0.065-0.207,0.112c-0.148,0.098-0.272,0.219-0.408,0.334c-0.089,0.074-0.184,0.139-0.266,0.219
				c-0.119,0.118-0.213,0.258-0.32,0.388c-0.077,0.095-0.166,0.184-0.237,0.284c-0.077,0.118-0.136,0.255-0.201,0.379
				c-0.071,0.13-0.16,0.255-0.213,0.396c-0.024,0.053-0.035,0.113-0.053,0.169c-0.089,0.222-0.166,0.447-0.213,0.684
				c-0.059,0.296-0.095,0.601-0.095,0.915v18.233c-0.207-0.009-0.408-0.045-0.621-0.045c-5.364,0-9.709,3.22-9.709,7.196
				c0,3.975,4.345,7.196,9.709,7.196c5.369,0,9.714-3.22,9.714-7.196c0-0.346,0-20.835,0-20.835h3.582
				c2.516,0,4.547-2.039,4.552-4.546C57.164,218.347,55.133,216.311,52.617,216.311z"/>
		</g>
		<g>
			<path fill="#161616" d="M262.505,29.073l-7.577,2.945c-0.29,0.114-0.562,0.255-0.817,0.42c-0.444,0.283-0.811,0.645-1.119,1.046
				c-0.047,0.062-0.106,0.115-0.148,0.179c-0.101,0.145-0.178,0.305-0.26,0.46c-0.053,0.102-0.118,0.197-0.166,0.302
				c-0.065,0.152-0.107,0.317-0.16,0.476c-0.036,0.117-0.089,0.229-0.113,0.352c-0.036,0.139-0.036,0.284-0.053,0.426
				c-0.024,0.148-0.053,0.295-0.059,0.446c0,0.058,0.012,0.117,0.012,0.178c0,0.238,0.012,0.473,0.048,0.713
				c0.053,0.298,0.136,0.593,0.249,0.887l6.612,16.993c-0.201,0.068-0.402,0.105-0.598,0.182c-5.002,1.946-7.885,6.524-6.441,10.228
				c1.439,3.704,6.654,5.131,11.656,3.187c5.002-1.945,7.885-6.524,6.447-10.228c-0.124-0.324-7.554-19.418-7.554-19.418
				l3.339-1.298c2.344-0.911,3.499-3.547,2.593-5.887C267.484,29.322,264.85,28.161,262.505,29.073z"/>
		</g>
	</g>
</g>
</svg>
