<?xml version="1.0" encoding="utf-8"?>
<!-- Generator: Adobe Illustrator 24.3.0, SVG Export Plug-In . SVG Version: 6.00 Build 0)  -->
<svg version="1.1" id="Layer_1" xmlns="http://www.w3.org/2000/svg" xmlns:xlink="http://www.w3.org/1999/xlink" x="0px" y="0px"
	 viewBox="0 0 300 300" enable-background="new 0 0 300 300" xml:space="preserve">
<g>
	<g>
		<g>
			<path fill="#F4F4F4" d="M271.239,219.242c0,4.312-3.499,7.811-7.814,7.811H36.57c-4.316,0-7.808-3.499-7.808-7.811l0,0
				c0-4.313,3.493-7.808,7.808-7.808h226.855C267.74,211.433,271.239,214.929,271.239,219.242L271.239,219.242z"/>
		</g>
		<g>
			<path fill="#F9F9F9" d="M39.831,219.242c0-4.313,3.493-7.808,7.808-7.808H36.57c-4.316,0-7.808,3.496-7.808,7.808
				c0,4.312,3.493,7.811,7.808,7.811h11.07C43.324,227.053,39.831,223.554,39.831,219.242z"/>
		</g>
		<g>
			<path fill="#F4F4F4" d="M172.507,259.716h-45.02c-6.37,0-11.526,5.159-11.526,11.523h68.073
				C184.033,264.875,178.877,259.716,172.507,259.716z"/>
		</g>
		<g>
			<path fill="#F4F4F4" d="M157.234,227.053H150h-7.234c0,0,4.043,17.508-6.062,32.663H150h13.296
				C153.191,244.561,157.234,227.053,157.234,227.053z"/>
		</g>
		<g>
			<path fill="#F9F9F9" d="M137.562,259.716h5.576c10.105-15.155,6.062-32.663,6.062-32.663h-6.435c0,0,4.043,17.508-6.062,32.663
				h-9.217c-6.37,0-11.526,5.159-11.526,11.523h10.076C126.037,264.875,131.192,259.716,137.562,259.716z"/>
		</g>
		<g>
			<path fill="#F4F4F4" d="M255.888,168.893v-21.406c0-5.739-4.647-10.386-10.39-10.386H54.495c-5.742,0-10.389,4.647-10.389,10.386
				v21.406c0,0-0.065,14.477,23.679,14.477c26.272,0,25.964-9.117,42.363-9.117c16.623,0,21.063,9.117,43.239,9.117
				c22.182,0,28.054-10.188,40.948-10.188c13.533,0,14.48,10.188,38.07,10.188C250.637,183.37,255.888,178.546,255.888,168.893z"/>
		</g>
		<g>
			<path fill="#FE6F80" d="M232.404,183.37c-23.59,0-24.538-10.188-38.07-10.188c-12.893,0-18.766,10.188-40.948,10.188
				c-22.176,0-26.616-9.117-43.239-9.117c-16.398,0-16.09,9.117-42.363,9.117c-23.745,0-23.679-14.477-23.679-14.477v42.54h211.783
				v-42.54C255.888,178.546,250.637,183.37,232.404,183.37z"/>
		</g>
		<g>
			<path fill="#F9F9F9" d="M65.103,168.893v-21.406c0-5.739,4.647-10.386,10.389-10.386H54.246c-5.742,0-10.389,4.647-10.389,10.386
				v21.406c0,0-0.071,14.477,23.673,14.477c4.979,0,8.998-0.329,12.361-0.858C65.103,179.43,65.103,168.893,65.103,168.893z"/>
		</g>
		<g>
			<g>
				<path fill="#FFA1AA" d="M43.857,168.893v42.54h21.246v-28.158C43.857,182.299,43.857,168.893,43.857,168.893z"/>
			</g>
		</g>
		<g>
			<path fill="#F4F4F4" d="M230.664,75.842H69.336c-4.469,0-8.074,3.614-8.074,8.075v53.184h177.471V83.917
				C238.733,79.456,235.127,75.842,230.664,75.842z"/>
		</g>
		<g>
			<path fill="#F9F9F9" d="M80.406,75.842h-11.07c-4.469,0-8.074,3.614-8.074,8.075v53.184h11.07V83.917
				C72.331,79.456,75.937,75.842,80.406,75.842z"/>
		</g>
		<g>
			<path fill="#9AE8CE" d="M94.347,137.101c0.657-1.433,1.048-3.019,1.048-4.694c0-6.251-5.067-11.319-11.325-11.319
				c-6.251,0-11.319,5.067-11.319,11.319c0,1.675,0.385,3.262,1.042,4.694H94.347z"/>
		</g>
		<g>
			<path fill="#AEF4DB" d="M87.025,121.525c-0.947-0.257-1.924-0.438-2.954-0.438c-6.251,0-11.319,5.067-11.319,11.319
				c0,1.675,0.385,3.262,1.042,4.694h5.908c-0.657-1.433-1.042-3.019-1.042-4.694C78.66,127.185,82.218,122.831,87.025,121.525z"/>
		</g>
		<g>
			<path fill="#A880B2" d="M126.984,137.101c0.657-1.433,1.048-3.019,1.048-4.694c0-6.251-5.074-11.319-11.325-11.319
				c-6.257,0-11.331,5.067-11.331,11.319c0,1.675,0.397,3.262,1.054,4.694H126.984z"/>
		</g>
		<g>
			<path fill="#9AE8CE" d="M160.022,137.101c0.657-1.433,1.048-3.019,1.048-4.694c0-6.251-5.073-11.319-11.325-11.319
				c-6.251,0-11.325,5.067-11.325,11.319c0,1.675,0.391,3.262,1.048,4.694H160.022z"/>
		</g>
		<g>
			<path fill="#A880B2" d="M192.593,137.101c0.657-1.433,1.048-3.019,1.048-4.694c0-6.251-5.073-11.319-11.325-11.319
				c-6.251,0-11.325,5.067-11.325,11.319c0,1.675,0.391,3.262,1.048,4.694H192.593z"/>
		</g>
		<g>
			<path fill="#9AE8CE" d="M226.011,137.101c0.657-1.433,1.048-3.019,1.048-4.694c0-6.251-5.073-11.319-11.325-11.319
				c-6.257,0-11.325,5.067-11.325,11.319c0,1.675,0.391,3.262,1.048,4.694H226.011z"/>
		</g>
		<g>
			<path fill="#FE6F80" d="M238.733,88.09c-7.702,0.284-15.078,1.598-21.252,3.439c-7.317,2.184-22.543,6.731-37.727,1.666
				c-18.588-6.195-35.3-6.725-52.592-1.675c-1.888,0.55-3.706,1.107-5.476,1.652c-13.698,4.2-22.75,6.974-38.852-0.204
				c-7.423-3.306-14.864-4.466-21.572-4.552v12.13c5.245,0.08,10.999,0.989,16.635,3.499c9.01,4.014,16.493,5.482,23.307,5.482
				c8.501,0,15.966-2.288,24.035-4.763c1.723-0.527,3.487-1.068,5.322-1.604c15.019-4.387,29.008-3.91,45.358,1.539
				c18.825,6.275,37.183,0.787,45.032-1.548c5.405-1.613,11.55-2.661,17.783-2.927V88.09z"/>
		</g>
		<g>
			<path fill="#FFA1AA" d="M72.331,89.608c-3.818-0.793-7.548-1.148-11.07-1.193v12.13c3.522,0.053,7.276,0.536,11.07,1.569V89.608z
				"/>
		</g>
		<g>
			<path fill="#FE6F80" d="M137.858,75.842h17.132l1.859-2.093l-5.938-6.692h0.006c-1.367-1.616-2.19-3.7-2.19-5.976
				c0-5.127,4.15-9.273,9.276-9.273c4.973,0,9.022,3.916,9.253,8.832l0.006-0.006l0.03,0.015c0.225-4.635,3.842-8.341,8.412-8.764
				c1.231-2.226,1.959-4.774,1.959-7.501c0-8.625-6.985-15.622-15.617-15.622c-8.383,0-15.202,6.604-15.587,14.894l-0.053-0.021
				l-0.018,0.003c-0.391-8.273-7.205-14.877-15.587-14.877c-8.625,0-15.616,6.997-15.616,15.622c0,3.839,1.391,7.344,3.682,10.07
				h-0.006L137.858,75.842z"/>
		</g>
		<g>
			<path fill="#FFA1AA" d="M129.257,54.454L129.257,54.454c-2.291-2.726-3.676-6.231-3.676-10.07
				c0-6.799,4.369-12.529,10.436-14.672c-1.64-0.583-3.374-0.95-5.215-0.95c-8.625,0-15.616,6.997-15.616,15.622
				c0,3.839,1.391,7.344,3.682,10.07h-0.006l18.996,21.389h10.395L129.257,54.454"/>
		</g>
		<g>
			<path fill="#9AE8CE" d="M185.827,61.081c0-5.127-4.15-9.273-9.276-9.273c-4.973,0-9.028,3.916-9.259,8.841l-0.03-0.015
				l-0.006,0.006c-0.231-4.916-4.28-8.832-9.253-8.832c-5.126,0-9.276,4.147-9.276,9.273c0,2.276,0.823,4.36,2.19,5.976h-0.006
				l7.802,8.785h17.126l7.802-8.785h-0.006C185.004,65.441,185.827,63.357,185.827,61.081z"/>
		</g>
		<g>
			<path fill="#AEF4DB" d="M158.146,67.057c-1.368-1.616-2.191-3.7-2.191-5.976c0-3.839,2.327-7.127,5.648-8.536
				c-1.107-0.47-2.32-0.737-3.599-0.737c-5.126,0-9.276,4.147-9.276,9.273c0,2.276,0.823,4.36,2.19,5.976h-0.006l7.802,8.785h7.228
				l-7.802-8.785H158.146z"/>
		</g>
		<g>
			<path fill="#B999C1" d="M119.655,121.525c-0.947-0.257-1.924-0.438-2.954-0.438c-6.251,0-11.325,5.067-11.325,11.319
				c0,1.675,0.391,3.262,1.048,4.694h5.908c-0.657-1.433-1.048-3.019-1.048-4.694C111.284,127.185,114.842,122.831,119.655,121.525z
				"/>
		</g>
		<g>
			<path fill="#AEF4DB" d="M152.699,121.525c-0.947-0.257-1.924-0.438-2.954-0.438c-6.251,0-11.325,5.067-11.325,11.319
				c0,1.675,0.391,3.262,1.048,4.694h5.908c-0.657-1.433-1.048-3.019-1.048-4.694C144.329,127.185,147.886,122.831,152.699,121.525z
				"/>
		</g>
		<g>
			<path fill="#B999C1" d="M185.265,121.525c-0.947-0.257-1.924-0.438-2.954-0.438c-6.251,0-11.319,5.067-11.319,11.319
				c0,1.675,0.385,3.262,1.042,4.694h5.908c-0.657-1.433-1.042-3.019-1.042-4.694C176.9,127.185,180.457,122.831,185.265,121.525z"
				/>
		</g>
		<g>
			<path fill="#AEF4DB" d="M218.688,121.525c-0.947-0.257-1.924-0.438-2.954-0.438c-6.251,0-11.325,5.067-11.325,11.319
				c0,1.675,0.391,3.262,1.048,4.694h5.908c-0.657-1.433-1.048-3.019-1.048-4.694C210.317,127.185,213.875,122.831,218.688,121.525z
				"/>
		</g>
	</g>
	<g>
		<g>
			<path fill="#161616" d="M263.424,231.599h-26.296c-2.51,0-4.546-2.036-4.546-4.547c0-2.51,2.036-4.546,4.546-4.546h26.296
				c1.803,0,3.268-1.465,3.268-3.265c0-1.8-1.465-3.262-3.268-3.262H36.57c-1.8,0-3.262,1.462-3.262,3.262
				c0,1.8,1.462,3.265,3.262,3.265h180.413c2.51,0,4.546,2.036,4.546,4.546c0,2.51-2.036,4.547-4.546,4.547H36.57
				c-6.814,0-12.355-5.544-12.355-12.358c0-6.814,5.541-12.355,12.355-12.355h226.855c6.817,0,12.361,5.541,12.361,12.355
				C275.785,226.055,270.241,231.599,263.424,231.599z"/>
		</g>
		<g>
			<path fill="#161616" d="M184.033,275.785h-68.072c-2.51,0-4.547-2.036-4.547-4.546c0-8.862,7.21-16.069,16.072-16.069h45.02
				c8.862,0,16.072,7.207,16.072,16.069C188.58,273.749,186.543,275.785,184.033,275.785z M122.197,266.692h55.599
				c-1.282-1.486-3.176-2.43-5.289-2.43h-45.02C125.373,264.262,123.479,265.206,122.197,266.692z"/>
		</g>
		<g>
			<path fill="#161616" d="M163.296,264.262h-26.592c-1.675,0-3.217-0.923-4.008-2.4c-0.793-1.48-0.704-3.274,0.225-4.668
				c8.912-13.367,5.452-28.963,5.414-29.117c-0.311-1.35,0.009-2.77,0.873-3.854c0.861-1.086,2.173-1.717,3.558-1.717h14.468
				c1.385,0,2.696,0.63,3.558,1.717c0.861,1.08,1.181,2.492,0.876,3.839l0,0c-0.036,0.157-3.431,15.874,5.411,29.132
				c0.929,1.394,1.018,3.188,0.225,4.668C166.513,263.339,164.971,264.262,163.296,264.262z M144.302,255.169h11.396
				c-3.881-9.111-4.082-18.041-3.661-23.57h-4.073C148.384,237.128,148.183,246.059,144.302,255.169z"/>
		</g>
		<g>
			<path fill="#161616" d="M232.404,187.917c-14.575,0-21.427-3.709-26.932-6.689c-3.747-2.031-6.459-3.499-11.138-3.499
				c-4.609,0-8.234,1.622-12.825,3.673c-6.488,2.904-14.566,6.515-28.122,6.515c-12.731,0-20.107-2.844-26.616-5.355
				c-5.233-2.019-9.756-3.762-16.623-3.762c-6.269,0-9.602,1.486-13.82,3.365c-5.745,2.563-12.899,5.751-28.543,5.751
				c-10.304,0-18.041-2.525-23.002-7.506c-5.106-5.129-5.227-10.895-5.224-11.538v-21.385c0-8.235,6.701-14.933,14.936-14.933
				h191.004c8.234,0,14.936,6.698,14.936,14.933v21.406C260.435,185.655,246.266,187.917,232.404,187.917z M194.334,168.636
				c6.985,0,11.298,2.335,15.469,4.594c5.079,2.75,10.33,5.594,22.602,5.594c18.938,0,18.938-5.275,18.938-9.931v-21.406
				c0-3.22-2.622-5.84-5.843-5.84H54.495c-3.22,0-5.843,2.62-5.843,5.84v21.406c0.038,0.953,0.912,9.931,19.133,9.931
				c13.71,0,19.367-2.522,24.84-4.964c4.582-2.042,9.318-4.153,17.523-4.153c8.56,0,14.323,2.223,19.897,4.372
				c6.047,2.332,12.301,4.745,23.342,4.745c11.615,0,18.121-2.91,24.41-5.722C182.935,170.805,187.786,168.636,194.334,168.636z"/>
		</g>
		<g>
			<path fill="#161616" d="M255.888,215.98H44.106c-2.51,0-4.546-2.036-4.546-4.546v-42.534c0-0.009,0-0.018,0-0.027
				c0.012-2.504,2.045-4.526,4.546-4.526c0.003,0,0.006,0,0.009,0c2.507,0.006,4.538,2.039,4.538,4.546v0.024
				c0.038,0.941,0.924,9.907,19.133,9.907c13.71,0,19.367-2.522,24.84-4.964c4.582-2.042,9.318-4.153,17.523-4.153
				c8.56,0,14.323,2.223,19.897,4.372c6.047,2.332,12.301,4.745,23.342,4.745c11.615,0,18.121-2.91,24.41-5.722
				c5.138-2.297,9.99-4.467,16.537-4.467c6.985,0,11.298,2.335,15.469,4.594c5.079,2.75,10.33,5.594,22.602,5.594
				c18.938,0,18.938-5.275,18.938-9.931c0-2.51,2.036-4.546,4.546-4.546c2.51,0,4.547,2.036,4.547,4.546v42.54
				C260.435,213.943,258.398,215.98,255.888,215.98z M48.652,206.887h202.69v-22.06c-5.242,2.546-12.127,3.09-18.938,3.09
				c-14.575,0-21.427-3.709-26.932-6.689c-3.747-2.031-6.459-3.499-11.138-3.499c-4.609,0-8.234,1.622-12.825,3.673
				c-6.488,2.904-14.566,6.515-28.122,6.515c-12.731,0-20.107-2.844-26.616-5.355c-5.233-2.019-9.756-3.762-16.623-3.762
				c-6.269,0-9.602,1.486-13.82,3.365c-5.745,2.563-12.899,5.751-28.543,5.751c-7.93,0-14.341-1.495-19.133-4.458V206.887z"/>
		</g>
		<g>
			<path fill="#161616" d="M238.733,141.647H61.261c-2.51,0-4.546-2.036-4.546-4.546V83.917c0-6.959,5.662-12.621,12.621-12.621
				h9.555c2.51,0,4.546,2.036,4.546,4.546c0,2.51-2.036,4.546-4.546,4.546h-9.555c-1.945,0-3.528,1.584-3.528,3.528v48.637h168.378
				V83.917c0-1.945-1.581-3.528-3.522-3.528H99.036c-2.51,0-4.546-2.036-4.546-4.546c0-2.51,2.036-4.546,4.546-4.546h131.628
				c6.956,0,12.615,5.662,12.615,12.621v53.184C243.279,139.611,241.243,141.647,238.733,141.647z"/>
		</g>
		<g>
			<path fill="#161616" d="M94.407,141.647H73.853c-1.776,0-3.392-1.036-4.132-2.652c-0.968-2.104-1.456-4.322-1.456-6.589
				c0-8.75,7.116-15.865,15.865-15.865c8.753,0,15.871,7.116,15.871,15.865c0,2.258-0.491,4.475-1.462,6.589
				C97.799,140.611,96.183,141.647,94.407,141.647z M77.36,132.554h13.545c0.003-0.05,0.003-0.098,0.003-0.148
				c0-3.735-3.04-6.772-6.778-6.772c-3.735,0-6.772,3.037-6.772,6.772C77.357,132.456,77.357,132.504,77.36,132.554z"/>
		</g>
		<g>
			<path fill="#161616" d="M126.984,141.647H106.43c-1.776,0-3.392-1.036-4.132-2.652c-0.974-2.122-1.468-4.339-1.468-6.589
				c0-8.75,7.122-15.865,15.877-15.865c8.752,0,15.871,7.116,15.871,15.865c0,2.258-0.491,4.475-1.462,6.589
				C130.376,140.611,128.76,141.647,126.984,141.647z M109.926,132.554h13.557c0.003-0.05,0.003-0.098,0.003-0.148
				c0-3.735-3.04-6.772-6.778-6.772c-3.741,0-6.784,3.037-6.784,6.772C109.923,132.456,109.923,132.504,109.926,132.554z"/>
		</g>
		<g>
			<path fill="#161616" d="M160.022,141.647h-20.554c-1.776,0-3.392-1.036-4.132-2.652c-0.971-2.113-1.462-4.33-1.462-6.589
				c0-8.75,7.119-15.865,15.871-15.865s15.871,7.116,15.871,15.865c0,2.258-0.491,4.475-1.462,6.589
				C163.414,140.611,161.798,141.647,160.022,141.647z M142.97,132.554h13.551c0.003-0.05,0.003-0.098,0.003-0.148
				c0-3.735-3.04-6.772-6.778-6.772c-3.738,0-6.778,3.037-6.778,6.772C142.967,132.456,142.967,132.504,142.97,132.554z"/>
		</g>
		<g>
			<path fill="#161616" d="M192.593,141.647H172.04c-1.776,0-3.392-1.036-4.132-2.652c-0.971-2.113-1.462-4.33-1.462-6.589
				c0-8.75,7.119-15.865,15.871-15.865s15.871,7.116,15.871,15.865c0,2.258-0.491,4.475-1.462,6.589
				C195.985,140.611,194.369,141.647,192.593,141.647z M175.541,132.554h13.551c0.003-0.05,0.003-0.098,0.003-0.148
				c0-3.735-3.04-6.772-6.778-6.772c-3.738,0-6.778,3.037-6.778,6.772C175.538,132.456,175.538,132.504,175.541,132.554z"/>
		</g>
		<g>
			<path fill="#161616" d="M226.011,141.647h-20.554c-1.776,0-3.392-1.036-4.132-2.652c-0.971-2.113-1.462-4.33-1.462-6.589
				c0-8.75,7.119-15.865,15.871-15.865c8.752,0,15.871,7.116,15.871,15.865c0,2.258-0.491,4.475-1.462,6.589
				C229.403,140.611,227.787,141.647,226.011,141.647z M208.959,132.554h13.55c0.003-0.05,0.003-0.098,0.003-0.148
				c0-3.735-3.04-6.772-6.778-6.772c-3.738,0-6.778,3.037-6.778,6.772C208.956,132.456,208.956,132.504,208.959,132.554z"/>
		</g>
		<g>
			<path fill="#161616" d="M101.203,114.072c-8.054,0-16.283-1.921-25.156-5.875c-4.443-1.977-9.439-3.022-14.853-3.105
				c-2.483-0.038-4.478-2.063-4.478-4.546v-12.13c0-1.216,0.488-2.38,1.353-3.235s1.971-1.362,3.253-1.311
				c8.374,0.106,16.235,1.77,23.363,4.946c14.554,6.488,22.051,4.185,35.67,0.009c1.785-0.548,3.626-1.11,5.535-1.669
				c18.227-5.319,35.8-4.771,55.303,1.729c13.814,4.612,28.119,0.34,34.986-1.711c7.015-2.09,14.755-3.345,22.386-3.626
				c1.231-0.065,2.433,0.414,3.324,1.27c0.888,0.858,1.391,2.039,1.391,3.274v12.133c0,2.436-1.918,4.437-4.351,4.543
				c-5.722,0.243-11.488,1.19-16.679,2.741c-8.306,2.469-27.622,8.22-47.77,1.504c-15.421-5.135-28.569-5.597-42.644-1.489
				c-1.687,0.494-3.312,0.992-4.899,1.477l-0.37,0.113C118.249,111.663,110.39,114.072,101.203,114.072z M65.808,96.257
				c4.967,0.503,9.638,1.72,13.938,3.635c7.794,3.472,14.61,5.088,21.456,5.088c7.823,0,14.72-2.113,22.703-4.561l0.37-0.115
				c1.625-0.497,3.285-1.003,5.011-1.507c15.957-4.662,30.783-4.177,48.069,1.589c17.419,5.805,34.818,0.634,42.247-1.578
				c4.612-1.376,9.575-2.332,14.584-2.821v-3.046c-5.304,0.497-10.555,1.498-15.406,2.945c-7.767,2.318-23.922,7.142-40.465,1.622
				c-17.665-5.887-33.515-6.402-49.878-1.625c-1.871,0.545-3.664,1.095-5.414,1.634c-14.154,4.339-24.387,7.474-42.04-0.397
				c-4.683-2.087-9.771-3.395-15.175-3.913V96.257z"/>
		</g>
		<g>
			<path fill="#161616" d="M154.99,80.388h-17.132c-1.299,0-2.537-0.556-3.398-1.527l-18.997-21.389
				c-3.14-3.744-4.825-8.356-4.825-13.089c0-11.12,9.046-20.169,20.163-20.169c6.293,0,11.923,2.874,15.622,7.412
				c3.7-4.538,9.33-7.412,15.623-7.412c11.117,0,20.163,9.049,20.163,20.169c0,3.357-0.873,6.713-2.528,9.703
				c-0.728,1.314-2.06,2.187-3.558,2.323c-2.335,0.216-4.179,2.134-4.292,4.458c-0.074,1.536-0.917,2.93-2.244,3.706
				c-1.178,0.693-2.602,0.811-3.875,0.337c-0.033-0.009-0.065-0.021-0.095-0.035c-1.681-0.648-2.821-2.223-2.904-4.023
				c-0.118-2.522-2.187-4.499-4.712-4.499c-2.608,0-4.73,2.119-4.73,4.727c0,1.424,0.607,2.439,1.116,3.04l5.861,6.613
				c1.527,1.723,1.527,4.316-0.003,6.035l-1.859,2.093C157.527,79.832,156.29,80.388,154.99,80.388z M139.901,71.296h8.693
				l-1.083-1.223c-2.175-2.578-3.33-5.739-3.33-8.992c0-7.619,6.201-13.82,13.823-13.82c3.584,0,6.855,1.362,9.312,3.602
				c1.483-1.335,3.253-2.359,5.207-2.96c0.397-1.137,0.595-2.315,0.595-3.519c0-6.106-4.967-11.076-11.07-11.076
				c-5.92,0-10.771,4.638-11.046,10.558c-0.068,1.462-0.835,2.803-2.06,3.602c-1.181,0.764-2.643,0.941-3.963,0.485
				c-0.518-0.169-1.003-0.432-1.436-0.778c-1.009-0.817-1.634-2.025-1.693-3.324c-0.281-5.911-5.133-10.543-11.046-10.543
				c-6.103,0-11.07,4.97-11.07,11.076c0,2.637,0.906,5.109,2.617,7.145L139.901,71.296z"/>
		</g>
		<g>
			<path fill="#161616" d="M175.84,80.388h-17.126c-1.3,0-2.537-0.556-3.398-1.527l-7.802-8.785
				c-2.178-2.581-3.333-5.742-3.333-8.995c0-7.619,6.201-13.82,13.823-13.82c3.564,0,6.82,1.347,9.273,3.567
				c2.454-2.22,5.71-3.567,9.273-3.567c7.622,0,13.823,6.201,13.823,13.82c0,3.259-1.16,6.423-3.265,8.912l-7.867,8.868
				C178.377,79.832,177.14,80.388,175.84,80.388z M160.756,71.296h13.041l6.447-7.258c0.429-0.515,1.036-1.533,1.036-2.957
				c0-2.608-2.122-4.727-4.73-4.727c-2.528,0-4.6,1.98-4.718,4.508c-0.071,1.536-0.915,2.93-2.241,3.709
				c-1.184,0.693-2.602,0.811-3.875,0.343c-0.033-0.012-0.065-0.024-0.098-0.038c-1.681-0.648-2.821-2.223-2.904-4.023
				c-0.118-2.522-2.187-4.499-4.712-4.499c-2.608,0-4.73,2.119-4.73,4.727c0,1.424,0.607,2.439,1.116,3.04L160.756,71.296z"/>
		</g>
	</g>
</g>
</svg>
