<svg xmlns="http://www.w3.org/2000/svg" width="47.992" height="48" viewBox="0 0 47.992 48">
  <g>
    <path d="M33.8,34.725a.929.929,0,0,1-.656-.271,6.1,6.1,0,0,1,0-8.61L44.413,14.571a4.235,4.235,0,0,0,0-5.983L41.776,5.949a4.239,4.239,0,0,0-5.985,0,.928.928,0,0,1-1.312-1.312,6.1,6.1,0,0,1,8.608,0l2.637,2.638a6.092,6.092,0,0,1,0,8.608L34.452,27.156a4.248,4.248,0,0,0,0,5.985.928.928,0,0,1-.655,1.584Z" fill="#7a8e9b"/>
    <path d="M41.8,47.5,32.553,36.52a1.4,1.4,0,0,1,.081-1.891l1-1,.986-.986a1.4,1.4,0,0,1,1.89-.081l10.983,9.248a1.4,1.4,0,0,1,.088,2.06L43.86,47.592A1.4,1.4,0,0,1,41.8,47.5Z" fill="#525c6b"/>
    <path d="M33.432,5.853a1.628,1.628,0,0,1-2.3,0h0l-.5-.494A2.784,2.784,0,0,0,26.7,9.3l5.025,5.024a1.794,1.794,0,0,1-2.537,2.536h0l-1.7-1.7a2.66,2.66,0,1,0-3.761,3.762l1.562,1.562A1.995,1.995,0,0,1,22.463,23.3h0l-3.412-3.412A3.757,3.757,0,0,0,13.736,25.2l1.993,1.992h0a1.316,1.316,0,1,1-1.862,1.861h0l-1.5-1.5A2.6,2.6,0,1,0,8.7,31.23l.295.295A2.6,2.6,0,0,1,5.316,35.2l4.366,4.365a2.977,2.977,0,0,0,4.2,0L39.565,13.88a2.977,2.977,0,0,0,0-4.2L33.434,3.55A1.63,1.63,0,0,1,33.432,5.853Z" fill="#e2e2e2"/>
    <path d="M26.55.867.866,26.551a2.977,2.977,0,0,0,0,4.2L5.314,35.2a2.6,2.6,0,1,0,3.674-3.674l-.295-.3a2.6,2.6,0,0,1,3.674-3.675l1.5,1.5h0a1.316,1.316,0,0,0,1.862-1.861h0L13.734,25.2a3.757,3.757,0,0,1,5.315-5.312L22.461,23.3h0a1.995,1.995,0,0,0,2.821-2.821L23.72,18.915a2.66,2.66,0,1,1,3.761-3.762l1.7,1.7h0a1.794,1.794,0,0,0,2.537-2.536L26.7,9.3a2.784,2.784,0,0,1,3.935-3.938l.495.494h0a1.629,1.629,0,1,0,2.3-2.3L30.747.865A2.975,2.975,0,0,0,26.55.867Z" fill="#ffbd66"/>
  </g>
</svg>
