<svg xmlns="http://www.w3.org/2000/svg" viewBox="0 0 512 512"><title>Artboard 147</title><g id="Bug_Free" data-name="Bug Free"><path d="M256,42.66667C138.17969,42.66667,42.66667,138.17839,42.66667,256c0,117.82031,95.513,213.33333,213.33333,213.33333S469.33333,373.82031,469.33333,256C469.33333,138.17839,373.82031,42.66667,256,42.66667Zm0,362.66666A149.33333,149.33333,0,1,1,405.33333,256,149.33342,149.33342,0,0,1,256,405.33333Z" style="fill:#fa4659"/><path d="M138.66667,426.66667a10.66667,10.66667,0,0,1-7.54167-18.20834L152.45833,387.125a10.66553,10.66553,0,1,1,15.08334,15.08333l-21.33334,21.33334A10.63211,10.63211,0,0,1,138.66667,426.66667Z" style="fill:#cb0025"/><path d="M405.33333,298.66667H362.66667a21.33334,21.33334,0,1,1,0-42.66667h42.66666a21.33334,21.33334,0,1,1,0,42.66667Z" style="fill:#080b36"/><path d="M458.66667,341.33333a10.63207,10.63207,0,0,1-7.54167-3.125l-42.66667-42.66666a10.66553,10.66553,0,0,1,15.08334-15.08334L466.20833,323.125a10.66667,10.66667,0,0,1-7.54166,18.20833Z" style="fill:#080b36"/><path d="M149.33333,298.66667H106.66667a21.33334,21.33334,0,1,1,0-42.66667h42.66666a21.33333,21.33333,0,1,1,0,42.66667Z" style="fill:#080b36"/><path d="M138.66667,277.33333H117.33333a10.66667,10.66667,0,0,1,0-21.33333h21.33334a10.66666,10.66666,0,0,1,0,21.33333Z" style="fill:#2c2f53"/><path d="M394.66667,277.33333H373.33333a10.66667,10.66667,0,0,1,0-21.33333h21.33334a10.66667,10.66667,0,0,1,0,21.33333Z" style="fill:#2c2f53"/><path d="M53.33333,341.33333A10.66667,10.66667,0,0,1,45.79167,323.125l42.66666-42.66667a10.66553,10.66553,0,0,1,15.08334,15.08334L60.875,338.20833A10.63207,10.63207,0,0,1,53.33333,341.33333Z" style="fill:#080b36"/><path d="M106.66667,405.33333a21.33333,21.33333,0,0,1-15.08334-36.41666L134.25,326.25a21.33106,21.33106,0,0,1,30.16667,30.16667L121.75,399.08333A21.2642,21.2642,0,0,1,106.66667,405.33333Z" style="fill:#080b36"/><path d="M117.33333,384a10.66667,10.66667,0,0,1-7.54166-18.20833L131.125,344.45833a10.66553,10.66553,0,0,1,15.08333,15.08334L124.875,380.875A10.63211,10.63211,0,0,1,117.33333,384Z" style="fill:#2c2f53"/><path d="M96,469.33333a10.66053,10.66053,0,0,1-10.66667-10.66666v-64a10.66667,10.66667,0,0,1,21.33334,0v64A10.66053,10.66053,0,0,1,96,469.33333Z" style="fill:#080b36"/><path d="M373.33333,213.33333a10.66667,10.66667,0,0,1-7.54166-18.20833L387.125,173.79167a10.65893,10.65893,0,0,1,7.54167-3.125h64a10.66667,10.66667,0,0,1,0,21.33333H399.08333L380.875,210.20833A10.63207,10.63207,0,0,1,373.33333,213.33333Z" style="fill:#080b36"/><path d="M362.66667,234.66667A21.33334,21.33334,0,0,1,347.58333,198.25l21.33334-21.33333a21.331,21.331,0,0,1,30.16666,30.16666L377.75,228.41667A21.26424,21.26424,0,0,1,362.66667,234.66667Z" style="fill:#080b36"/><path d="M405.33333,405.33333a21.2642,21.2642,0,0,1-15.08333-6.25l-42.66667-42.66666A21.33106,21.33106,0,0,1,377.75,326.25l42.66667,42.66667a21.33333,21.33333,0,0,1-15.08334,36.41666Z" style="fill:#080b36"/><path d="M394.66667,384a10.63211,10.63211,0,0,1-7.54167-3.125l-21.33333-21.33333A10.66553,10.66553,0,0,1,380.875,344.45833l21.33333,21.33334A10.66667,10.66667,0,0,1,394.66667,384Z" style="fill:#2c2f53"/><path d="M416,469.33333a10.66053,10.66053,0,0,1-10.66667-10.66666v-64a10.66667,10.66667,0,0,1,21.33334,0v64A10.66053,10.66053,0,0,1,416,469.33333Z" style="fill:#080b36"/><path d="M138.66667,213.33333a10.63207,10.63207,0,0,1-7.54167-3.125L112.91667,192H53.33333a10.66667,10.66667,0,0,1,0-21.33333h64a10.65893,10.65893,0,0,1,7.54167,3.125L146.20833,195.125a10.66667,10.66667,0,0,1-7.54166,18.20833Z" style="fill:#080b36"/><path d="M149.33333,234.66667a21.26424,21.26424,0,0,1-15.08333-6.25l-21.33333-21.33334a21.331,21.331,0,0,1,30.16666-30.16666L164.41667,198.25a21.33334,21.33334,0,0,1-15.08334,36.41667Z" style="fill:#080b36"/><path d="M288,128a10.66667,10.66667,0,0,1-7.54167-18.20833L320,70.25V53.33333a10.66666,10.66666,0,0,1,21.33333,0V74.66667a10.65893,10.65893,0,0,1-3.125,7.54166L295.54167,124.875A10.63213,10.63213,0,0,1,288,128Z" style="fill:#080b36"/><path d="M224,128a10.63213,10.63213,0,0,1-7.54167-3.125L173.79167,82.20833a10.65893,10.65893,0,0,1-3.125-7.54166V53.33333a10.66666,10.66666,0,0,1,21.33333,0V70.25l39.54167,39.54167A10.66667,10.66667,0,0,1,224,128Z" style="fill:#080b36"/><ellipse cx="256" cy="160" rx="85.33333" ry="74.66667" style="fill:#080b36"/><ellipse cx="245.33333" cy="170.66667" rx="74.66667" ry="64" style="fill:#2c2f53"/><rect x="128" y="128" width="256" height="341.33333" rx="127.99987" ry="127.99987" style="fill:#080b36"/><ellipse cx="330.66667" cy="309.33333" rx="32" ry="53.33333" style="fill:#2c2f53"/><path d="M255.99987,128H256a0,0,0,0,1,0,0V448a0,0,0,0,1,0,0h-.00013A127.99987,127.99987,0,0,1,128,320.00013V255.99987A127.99987,127.99987,0,0,1,255.99987,128Z" style="fill:#2c2f53"/><ellipse cx="224" cy="106.66667" rx="35.34516" ry="15.14241" transform="translate(-23.84458 117.92898) rotate(-28.06513)" style="fill:#4c4f6e"/><path d="M256,213.33333v-64A21.33331,21.33331,0,0,0,234.66669,128h-.00013A106.66657,106.66657,0,0,0,128,234.66656v.00011H234.66667A21.33334,21.33334,0,0,0,256,213.33333Z" style="fill:#4c4f6e"/><path d="M256,213.33333v-64A21.33331,21.33331,0,0,1,277.33331,128h.00013A106.66657,106.66657,0,0,1,384,234.66656v.00011H277.33333A21.33334,21.33334,0,0,1,256,213.33333Z" style="fill:#2c2f53"/><rect x="192" y="149.33333" width="42.66667" height="64" rx="21.33331" ry="21.33331" style="fill:#999aac"/><rect x="277.33333" y="149.33333" width="42.66667" height="64" rx="21.33331" ry="21.33331" style="fill:#4c4f6e"/><ellipse cx="202.66667" cy="394.66667" rx="22.20265" ry="39.42484" transform="translate(-219.71178 258.90216) rotate(-45)" style="fill:#4c4f6e"/><circle cx="192" cy="298.66667" r="42.66667" style="fill:#4c4f6e"/><ellipse cx="170.66667" cy="277.33333" rx="27.23522" ry="12.96305" transform="translate(-146.11717 201.90861) rotate(-45)" style="fill:#999aac"/><path d="M394.66667,170.66667a10.66667,10.66667,0,0,1-7.54167-18.20834L408.45833,131.125a10.66553,10.66553,0,1,1,15.08334,15.08333l-21.33334,21.33334A10.63211,10.63211,0,0,1,394.66667,170.66667Z" style="fill:#cb0025"/><rect x="44.81077" y="225.83011" width="422.37845" height="60.33978" transform="translate(-106.03867 256) rotate(-45)" style="fill:#fa4659"/></g></svg>