<svg id="filled_outline" data-name="filled outline" xmlns="http://www.w3.org/2000/svg" viewBox="0 0 340 340"><path d="M214.18,47.984A16.985,16.985,0,0,0,217.939,59.9s-23.273,46.877-.99,71.031a8.173,8.173,0,0,0,11.765.109,42.934,42.934,0,0,0,3.285-3.7c9.191,11.905,28.36,12.577,38.7,1.31l3.24-3.393s2.489,9,14.289,12.734c7.121,2.13,13.185-2.151,15.635-8.828a28.983,28.983,0,0,0,11.408,8.226,9.536,9.536,0,0,0,12-12.936c-8.261-13.953-11.645-33.759-6.43-61.839a13.989,13.989,0,0,1,2.058-4.945c5.238-7.243,3.788-18.155-7.227-18.857H224.344A10.157,10.157,0,0,0,214.18,47.984Z" style="fill:#f7f5fc"/><path d="M303.169,114.6a1.56,1.56,0,0,0-2.868.577,28.362,28.362,0,0,1-2.181,7.658c-3.13,6.8-13.576,4.857-13.963-2.654l-3.343-54.821h14.829a41.2,41.2,0,0,0,14.487-2.649c1.343-.5,1.032-2.813-.379-2.813H230.5c-1.345,0-1.627,2.209-.341,2.666a42,42,0,0,0,14.924,2.8h26.328L270.4,105.51c-.159-.417-.24-.655-.24-.655.338,1.592-.011,9.875-.037,11.65a13.521,13.521,0,0,1-10.244,9.321c-17.269,3.461-26.047-11.846-29.178-19.09a1.528,1.528,0,0,0-2.845.12,52.46,52.46,0,0,0-2.269,11.024,4.109,4.109,0,0,1-5.951,3.209c-7.306-3.624-10.713-10.69-12.306-16.417-.529,12.322,10.844,41.62,24.668,22.662,9.191,11.905,28.358,12.578,38.7,1.311l3.242-3.394s2.489,9,14.29,12.734c7.12,2.13,13.184-2.151,15.634-8.829a28.98,28.98,0,0,0,11.408,8.227,9.584,9.584,0,0,0,12.9-8.386C317.226,134.413,307.5,121.641,303.169,114.6Z" style="fill:#d0cde2"/><rect x="262.41" y="59.897" width="13.957" height="269.996" style="fill:#ffc998"/><path d="M188.935,214.293l11.724,20.933a8.917,8.917,0,0,0,10.375,4.173l15.526-4.726v26.259L208.217,271.35a17.68,17.68,0,0,1-22.77-4.63l-30.218-39.494Z" style="fill:#ffd1bd"/><path d="M42.681,201.936,15.206,241.971a19.158,19.158,0,0,0,3.425,25.468l16.082,13.6,18.912-20.3L50.1,255.658a10.572,10.572,0,0,1,.865-13.122l19.482-21.458Z" style="fill:#ffd1bd"/><polygon points="42.681 201.936 34.958 213.189 56.209 236.763 70.449 221.078 42.681 201.936" style="fill:#fca490"/><polygon points="262.409 273.609 276.366 279.295 276.366 215.881 269.388 214.719 262.409 218.258 262.409 273.609" style="fill:#f49d70"/><path d="M188.935,214.293l-33.706,12.933,17.3,22.613c5.95-5.028,6.15-13.683,6.15-13.683l16.833-10.117Z" style="fill:#fca490"/><path d="M25.181,276.076c5.147-6.267,13.646-15.341,23.231-20.424a12.713,12.713,0,0,1,14.809,2.038,198.059,198.059,0,0,1,23.661,27.15v45.052H69.544c-12.242.251-20.825-13.422-15.311-24.337l3.172-6.605s-13.662-2.106-30.226-11.591A7.507,7.507,0,0,1,25.181,276.076Z" style="fill:#a1c8ff"/><path d="M170.893,169.753c-12.351-17.67-30.048-13.195-48.418-13.733H90.846a31.631,31.631,0,0,0-26.08,13.733L38.61,207.867l43.927,30.771h75.53l41.985-26.977Z" style="fill:#fcfcfc"/><path d="M86.882,329.892V284.84a169.553,169.553,0,0,0-11.4-14.334v39.487s-.013,16.653-17.173,15.634a16.94,16.94,0,0,0,11.233,4.265Z" style="fill:#79a8e2"/><path d="M122.475,169.892A14.771,14.771,0,0,1,107.7,155.121V127.778h29.542v27.343A14.771,14.771,0,0,1,122.475,169.892Z" style="fill:#ffd1bd"/><path d="M156.293,199.015V158.29a6.907,6.907,0,0,0-6.907-6.907h-12.14v32.861a14.771,14.771,0,0,1-29.542,0V151.383H95.563a6.906,6.906,0,0,0-6.906,6.907v40.725s-25,24.027-6.12,49.318v81.559h79.875V248.333C181.292,223.042,156.293,199.015,156.293,199.015Z" style="fill:#a1c8ff"/><path d="M216.148,237.327l3.753,28.144a6.235,6.235,0,0,0,10.06,4.057l41.5-32.983-3.318-28.873s-21.261,11.756-43.37,17.027A11.417,11.417,0,0,0,216.148,237.327Z" style="fill:#a1c8ff"/><path d="M241.611,219.523c-.786,6.177,2.145,12.752,8.457,13.487a23.968,23.968,0,0,0,7.349,14.7l14.048-11.163-3.318-28.873S259.256,212.9,241.611,219.523Z" style="fill:#79a8e2"/><polygon points="107.704 151.997 137.246 146.682 137.246 127.778 107.704 127.778 107.704 151.997" style="fill:#fca490"/><path d="M94.625,94.088H83.993a13.544,13.544,0,1,0,0,27.088H94.625Z" style="fill:#fca490"/><path d="M150.324,94.088h10.632a13.544,13.544,0,1,1,0,27.088H150.324Z" style="fill:#fca490"/><path d="M92.083,27.2c-10.937-19.19-39.04-19.171-50.137,0-3.915,6.7-7.3,16.209-8.256,29.572L31.379,88.962s-.266,6.569-4.062,10.336a1.888,1.888,0,0,0,1.208,3.231c11.142.65,35.323-2.671,45.276-41.118Z" style="fill:#ffa82c"/><path d="M88.657,44.694A14.467,14.467,0,0,1,74.19,59.161c-19.15-.662-19.145-28.274,0-28.933A14.466,14.466,0,0,1,88.657,44.694Z" style="fill:#565e68"/><path d="M172.59,60.224a50.115,50.115,0,0,1-50.115,50.115c-66.342-2.292-66.325-97.948,0-100.231A50.116,50.116,0,0,1,172.59,60.224Z" style="fill:#ffc45f"/><path d="M112.723,44.694s7.879,37.733,37.4,43.605a9.728,9.728,0,0,1,7.944,9.491v6.875c-1.627,47.114-69.563,47.105-71.185,0v-23.4S87.37,55.908,112.723,44.694Z" style="fill:#ffd1bd"/><path d="M273.939,195.967a14.992,14.992,0,0,0-12.192,6.266c-5.652-7.543-18.031-3.481-17.991,6.079v6.04c-.218,7.6,8.8,12.649,15.157,8.606v7.353c.687,19.891,29.368,19.886,30.052,0V210.993A15.026,15.026,0,0,0,273.939,195.967Z" style="fill:#a1c8ff"/><polygon points="276.366 88.248 276.366 59.896 262.409 59.896 262.409 83.081 276.366 88.248" style="fill:#f49d70"/><path d="M329.678,120.512c-6.2-9.258-11.225-38.95-3.47-60.608a20.786,20.786,0,0,0,3.667-10.552c.533-7.77-6.48-14.7-14.207-14.546H224.344c-13.474.338-17.869,15.113-10.992,25.456-4.441,9.852-20.654,50.277.657,73.378,4.66,5.3,13.581,4.965,18.11-.363a29.1,29.1,0,0,0,16.456,7.308c5.256.421,6.085-7.258.85-7.955a21.345,21.345,0,0,1-13.961-7.361,52.729,52.729,0,0,1-4.393-17.916,4,4,0,0,0-7.98.558,61.116,61.116,0,0,0,4.261,18.738c-1.706,2.439-5.089,4.11-7.462,1.566-17.546-19.017-3.456-55.047.616-64.319h12.172a4,4,0,0,0,0-8h-12.6c-3.235-4.87-2.754-12.863,4.266-13.09h91.324c7.855.6,7.119,8.5,3.627,13.09h-7.76c-5.275.134-5.274,7.867,0,8H316.5c-4.693,28.079-1.3,47.945,7.154,62.267a5.537,5.537,0,0,1-6.958,7.483,25.028,25.028,0,0,1-9.722-7C301.759,120.2,298.544,110.9,297.417,99a4,4,0,0,0-7.965.755c1.169,12.333,4.454,22.357,9.762,29.862-4.3,8.959-14.953,3.52-18.848-1.192V63.9H291.2c-.625,3.607-1.406,8.962-1.86,15.253a4,4,0,1,0,7.978.576A139.064,139.064,0,0,1,299.957,60.8a4.027,4.027,0,0,0-3.9-4.9H276.366a4,4,0,0,0-4,4V185.043c.117,5.217,7.854,5.327,8,0V138.78c7.881,5.25,18.462,5.339,24.49-3.018,6.506,5.637,16.509,9.64,23.709,1.863A13.7,13.7,0,0,0,329.678,120.512Z" style="fill:#2f313f"/><path d="M16.048,270.493l5.133,4.342a11.543,11.543,0,0,0,4.011,16,109.489,109.489,0,0,0,26.423,10.938c-7.854,13.258.32,30.562,15.869,32.023a4,4,0,0,0,.781-7.961c-8.775-.613-14.392-10.739-10.426-18.543l3.172-6.606a4.026,4.026,0,0,0-3-5.684c-.129-.02-13.111-2.1-28.848-11.109-3.149-2.166-1.417-5.025.589-7.04,5.135-6.015,12.467-13.386,20.53-17.662a8.711,8.711,0,0,1,10.157,1.382,207.982,207.982,0,0,1,18.094,19.809v49.515a4,4,0,0,0,4,4h79.875a4,4,0,0,0,4-4V249.627c14.7-20.962,3.117-42.549-6.119-52.26v-32.6a27.618,27.618,0,0,1,7.316,7.276l26.789,38.5-14.528,9.335c-3.358,2.065-1.708,7.461,2.166,7.365,1.64.244,5.775-3.13,7.343-3.967l7.79,13.909a13.057,13.057,0,0,0,15.7,5.84l2.613,19.6-9.244,5.25a13.733,13.733,0,0,1-17.617-3.582l-9.619-12.572a4,4,0,1,0-6.354,4.862l9.62,12.571a21.77,21.77,0,0,0,27.921,5.677l7.531-4.276a10.271,10.271,0,0,0,14.726,2.108L251.8,257.28c4.054-3.336-.8-9.467-4.977-6.262L227.472,266.4a2.236,2.236,0,0,1-3.607-1.455L220.113,236.8a7.386,7.386,0,0,1,5.592-8.207,156.64,156.64,0,0,0,17.275-5.3,14.02,14.02,0,0,0,11.933,5.042,20.078,20.078,0,0,0,3.5,12.935v88.627a4,4,0,0,0,4,4h13.957a4,4,0,0,0,4-4V248.2a19.042,19.042,0,0,0,12.6-17.885V210.993c.3-13.384-14.457-23.006-26.557-17.465V59.9a4,4,0,0,0-4-4H249.088a4,4,0,0,0-3.725,2.542c-.31.794-7.551,19.656-2.171,37.92a4,4,0,0,0,7.674-2.261c-3.541-12.018-.5-24.869,1.1-30.2h6.439V195.065c-8.862-3.256-18.826,3.769-18.653,13.247.028,1.157-.079,6.543.093,7.6a147.875,147.875,0,0,1-16,4.894A15.343,15.343,0,0,0,212.07,234.9l-2.2.67a4.945,4.945,0,0,1-5.721-2.3l-8.026-14.331,6.091-3.914a4.024,4.024,0,0,0,1.121-5.65L174.19,167.49a35.464,35.464,0,0,0-14.3-12.112,10.919,10.919,0,0,0-10.5-7.995h-8.14v-7.868c15.319-8.41,22.056-23.571,20.821-41.357a9.543,9.543,0,0,1,2.6,18.27,4,4,0,0,0,3.117,7.368,17.575,17.575,0,0,0-8.15-33.708,13.947,13.947,0,0,0-8.734-5.713c-26.532-5.277-34.19-40.151-34.264-40.5a4,4,0,0,0-5.533-2.837c-27.372,12.107-28.2,39.009-28.223,40.226V83.89c-18.478-29.945,4.3-70.25,39.592-69.782,32.279-.659,55.541,34.547,42.528,63.978a4,4,0,0,0,7.376,3.1,53.779,53.779,0,0,0,4.212-20.964C177,15.652,123.972-10.06,89.383,17.45,74.676,3.333,48.393,7.144,38.492,25.183c-4.95,8.467-7.908,19-8.792,31.3.022.174-2.335,32.165-2.318,32.315,0,.08-.462,8.058-5.385,8.972a4,4,0,0,0-3.266,3.762c.214,4.735,4.431,4.615,11.94,4.989,10.128,0,26.669-3.352,38.279-22.553,2.636-4.55-4.042-8.593-6.846-4.14-8.981,14.854-21.12,18.33-29.314,18.756a22.374,22.374,0,0,0,2.583-9.4l2.306-32.13c.8-11.072,3.392-20.438,7.719-27.84,7.353-13.4,26.772-16.524,38-6.376a54.561,54.561,0,0,0-3.662,4.242C56.2,20.641,45.673,53.828,68.408,62.231a53.686,53.686,0,0,0,9.657,28.91c-18.233,6.756-13.744,33.746,5.929,34.035h4.627A39.882,39.882,0,0,0,103.7,139.515v7.868c-6.423.159-13.167-1.36-17.245,4.918a35.887,35.887,0,0,0-24.99,15.189L35.313,205.6l-23.4,34.1A23.091,23.091,0,0,0,16.048,270.493Zm256.318,55.4h-5.957V247.776a18.876,18.876,0,0,0,5.957,1.481Zm-9.453-114.9c.516-14.588,21.536-14.594,22.053,0v19.318a11.027,11.027,0,0,1-22.053,0Zm-15.157-2.681a6.058,6.058,0,0,1,8.926-5.28c-2.444,4.351-1.662,12.349-1.769,17.229a6.031,6.031,0,0,1-7.157-5.909ZM68.774,53.641c-9.3-5.6-4.719-20.234,6.228-19.367A53.708,53.708,0,0,0,68.774,53.641Zm15.219,63.535c-11.958-.31-12.876-17.365-1.11-19.018-.111,6.156-.09,13.33,2.037,19.018ZM78.537,267.921c-4.69-5.324-9.158-9.848-12.539-13.11A16.627,16.627,0,0,0,52.265,250.3a6.539,6.539,0,0,1,1.663-5.072L66,231.934,72.51,236.5a38.263,38.263,0,0,0,6.027,13.13ZM90.883,104.665V81.352a38.77,38.77,0,0,1,19.253-30.866c3.383,11.015,13.877,36.7,39.208,41.736a5.7,5.7,0,0,1,4.724,5.568v6.875C152.587,146.474,92.36,146.47,90.883,104.665Zm31.592,61.227A10.784,10.784,0,0,1,111.7,155.121V142.756a39.654,39.654,0,0,0,21.543,0v12.365A10.783,10.783,0,0,1,122.475,165.892Zm10.771,4.578v13.774a10.772,10.772,0,0,1-21.543,0V170.47C117.7,174.976,127.249,174.976,133.246,170.47ZM91.428,201.9a4,4,0,0,0,1.228-2.883V158.29a2.911,2.911,0,0,1,2.908-2.907H103.7v28.861a18.772,18.772,0,0,0,37.543,0V155.383h8.14a2.911,2.911,0,0,1,2.907,2.907v40.725a4.017,4.017,0,0,0,1.223,2.878c.914.885,22.188,21.939,5.694,44.043a12,12,0,0,1-8.886,4.213,4,4,0,0,0-4,4c.307,6.194,8.948,3.714,12.088,2.184v69.559H86.537v-69.82a30.036,30.036,0,0,0,11.64,2.077c5.274-.134,5.275-7.867,0-8-9.388,0-12.165-3.821-12.279-3.984l.07.111-.011.006C69.164,224.5,90.383,202.672,91.428,201.9ZM68.064,172.017a27.842,27.842,0,0,1,16.592-11.286v36.636c-5.718,6.012-12.33,16.577-13.053,28.727L44.15,206.863ZM18.5,244.234,39.623,213.46l19.768,13.847L48.005,239.848a14.512,14.512,0,0,0-3.345,13.319C37.6,257.309,31.249,263.253,26.3,268.683l-5.081-4.3A15.116,15.116,0,0,1,18.5,244.234Z" style="fill:#2f313f"/><path d="M119.331,258.149h3.144a4,4,0,1,0,0-8h-3.144C114.056,250.283,114.056,258.016,119.331,258.149Z" style="fill:#2f313f"/><path d="M113.682,97.812c-2.095-4.813-9.332-1.826-7.39,3.06C108.429,105.691,115.566,102.739,113.682,97.812Z" style="fill:#2f313f"/><path d="M134.962,103.342c5.257-.1,5.252-7.9,0-8C129.705,95.443,129.708,103.246,134.962,103.342Z" style="fill:#2f313f"/><path d="M224.477,89.278c-.924,2.4-.323,5.565,2.762,6.226a4.008,4.008,0,0,0,4.727-3.109C234.133,86.738,226.485,83.7,224.477,89.278Z" style="fill:#2f313f"/></svg>