<svg id="icons" xmlns="http://www.w3.org/2000/svg" viewBox="0 0 340 340"><path d="M292.225,204.528c-5.781-9.034-16.4-18.544-35.506-18.544-26.241,0-36.467,17.524-40.311,28.614a2.321,2.321,0,0,1-4.382,0c-3.844-11.09-14.07-28.614-40.311-28.614-19.1,0-29.725,9.51-35.506,18.544a46.493,46.493,0,0,0-6.889,27.815c2.24,38.722,38.709,63.289,49.752,69.866q5.093,3.033,10.023,6.326c9.9,6.651,17.069,11.957,21.155,15.086a6.528,6.528,0,0,0,7.935,0c4.085-3.129,11.252-8.435,21.154-15.086,3.28-2.2,6.628-4.3,10.023-6.326,11.043-6.577,47.512-31.144,49.752-69.866A46.493,46.493,0,0,0,292.225,204.528Z" style="fill:#ff8585"/><path d="M184.387,125.133H174.122V114.867a5.675,5.675,0,0,0-5.676-5.675H151.888a5.675,5.675,0,0,0-5.675,5.675v10.266H135.947a5.675,5.675,0,0,0-5.675,5.676v16.557a5.675,5.675,0,0,0,5.675,5.676h10.266v10.265a5.675,5.675,0,0,0,5.675,5.676h16.558a5.676,5.676,0,0,0,5.676-5.676V153.042h10.265a5.676,5.676,0,0,0,5.676-5.676V130.809A5.676,5.676,0,0,0,184.387,125.133Z" style="fill:#b9d379"/><path d="M48.893,181.251c-22.165,0-40.359-16.951-40.359-39.116V77.979A23.306,23.306,0,0,1,31.813,54.7h5.581a6,6,0,0,1,0,12H31.813a11.292,11.292,0,0,0-11.279,11.28v64.156c0,13.508,9.547,24.109,22.248,26.58a31.332,31.332,0,0,0,5.949.268c3.313,0,6,4.036,6,7.35S52.206,181.251,48.893,181.251Z" style="fill:#a7a7b5"/><path d="M36.611,56.363V73.538h5.7a7.92,7.92,0,0,0,7.92-7.92V55.78a7.919,7.919,0,0,0-7.92-7.919h-5.7Z" style="fill:#e0e0e0"/><path d="M71.615,181.251c22.165,0,40.359-16.951,40.359-39.116V77.979A23.307,23.307,0,0,0,88.694,54.7H83.113a6,6,0,0,0,0,12h5.581a11.293,11.293,0,0,1,11.28,11.28v64.156c0,13.508-9.548,24.109-22.249,26.58a31.324,31.324,0,0,1-5.949.268c-3.313,0-6,4.036-6,7.35S68.3,181.251,71.615,181.251Z" style="fill:#a7a7b5"/><path d="M83.9,56.363V73.538h-5.7a7.919,7.919,0,0,1-7.919-7.92V55.78a7.918,7.918,0,0,1,7.919-7.919h5.7Z" style="fill:#e0e0e0"/><path d="M193.355,257.529c.512,19.477-10.77,32.8-20.553,40.662,2.5,1.705,4.652,3.054,6.259,4.012,2.428,1.447,4.826,2.95,7.2,4.487,8.254-8.553,12.7-19.475,14.943-26.908a40.378,40.378,0,0,1,7.163-13.337c7.571-9.561,4-20.592,4-20.592Z" style="fill:#e05f5f"/><circle cx="193.355" cy="247.59" r="19.014" style="fill:#fff"/><path d="M136.253,317.014h-18.9a63.173,63.173,0,0,1-63.1-63.1V187.557a6,6,0,1,1,12,0v66.356a51.159,51.159,0,0,0,51.1,51.1h18.9c32.533,0,51.1-27.148,51.1-55.325a6,6,0,0,1,12,0C199.355,284.483,177.042,317.014,136.253,317.014Z" style="fill:#a7a7b5"/><path d="M42.782,168.715v8.963a5.238,5.238,0,0,0,5.238,5.237h3.5v5.914a4.957,4.957,0,0,0,4.957,4.957h7.557a4.957,4.957,0,0,0,4.957-4.957v-5.914h3.5a5.237,5.237,0,0,0,5.237-5.237v-8.963Z" style="fill:#e0e0e0"/><path d="M269.245,13.259c-18.821,17.869-62.221,9.755-62.221,9.755V86.33a59.516,59.516,0,0,0,4.028,21.915c15.633,39.51,58.193,47.427,58.193,47.427s42.56-7.917,58.194-47.427a59.536,59.536,0,0,0,4.027-21.915V23.014S288.066,31.128,269.245,13.259Z" style="fill:#ffdc6c"/><path d="M269.245,13.259a34.623,34.623,0,0,1-10.378,6.609L207.024,71.711V86.33a61.115,61.115,0,0,0,2.283,16.758l80.156-80.156C281.787,21.259,274.543,18.288,269.245,13.259Z" style="fill:#ffedd2"/><path d="M216.581,119.329a72.02,72.02,0,0,0,7.649,10.307L325.472,28.743V23.878c-3.349.4-7.874.806-12.988.933Z" style="fill:#ffedd2"/><path d="M327.439,108.245a59.536,59.536,0,0,0,4.027-21.915V23.014s-43.4,8.114-62.221-9.755V155.672S311.805,147.755,327.439,108.245Z" style="fill:#fca742"/><path d="M207.024,56.951,239.6,24.374c-2.568.246-5.115.386-7.589.444L207.024,49.805Z" style="fill:#ffedd2"/><path d="M151.888,172.983h16.558a9.687,9.687,0,0,0,9.676-9.676v-6.265h6.265a9.687,9.687,0,0,0,9.676-9.676V130.809a9.687,9.687,0,0,0-9.676-9.676h-6.265v-6.265a9.687,9.687,0,0,0-9.676-9.676H151.888a9.687,9.687,0,0,0-9.676,9.676v6.265h-6.264a9.687,9.687,0,0,0-9.676,9.676v16.557a9.687,9.687,0,0,0,9.676,9.676h6.264v6.265A9.687,9.687,0,0,0,151.888,172.983Zm-15.94-23.941a1.678,1.678,0,0,1-1.676-1.676V130.809a1.678,1.678,0,0,1,1.676-1.676h10.264a4,4,0,0,0,4-4V114.868a1.678,1.678,0,0,1,1.676-1.676h16.558a1.678,1.678,0,0,1,1.676,1.676v10.265a4,4,0,0,0,4,4h10.265a1.678,1.678,0,0,1,1.676,1.676v16.557a1.678,1.678,0,0,1-1.676,1.676H174.122a4,4,0,0,0-4,4v10.265a1.678,1.678,0,0,1-1.676,1.676H151.888a1.678,1.678,0,0,1-1.676-1.676V153.042a4,4,0,0,0-4-4Z" style="fill:#494456"/><path d="M42.089,184.745a9.185,9.185,0,0,0,5.429,2.157v1.927a8.929,8.929,0,0,0,2.735,6.43v58.654a67.177,67.177,0,0,0,67.1,67.1h18.9A66.76,66.76,0,0,0,178.111,306.3c3.055,1.839,5.833,3.595,8.431,5.336,16.06,10.772,25.049,18.114,25.138,18.188a4,4,0,0,0,5.074,0c.089-.073,9.078-7.415,25.14-18.187,2.9-1.944,6.013-3.906,9.525-6,11.532-6.871,49.338-32.444,51.688-73.066a50.193,50.193,0,0,0-7.514-30.2c-5.949-9.3-17.524-20.388-38.874-20.388-25.614,0-37.3,15.494-42.5,27.448-5.2-11.954-16.888-27.448-42.5-27.448-21.348,0-32.922,11.087-38.874,20.388a50.208,50.208,0,0,0-7.513,30.2c1.117,19.3,10.673,38.188,27.637,54.623a4,4,0,1,0,5.567-5.745c-15.72-15.231-24.2-31.831-25.218-49.34a42.27,42.27,0,0,1,6.266-25.428c7.089-11.081,17.9-16.7,32.135-16.7,34.248,0,38.369,32.561,38.527,33.938a4,4,0,0,0,7.953,0,45.741,45.741,0,0,1,6.276-17.076c6.954-11.189,17.805-16.862,32.249-16.862,14.235,0,25.047,5.619,32.136,16.7a42.259,42.259,0,0,1,6.266,25.428C293,268.8,258,292.406,247.326,298.767c-3.637,2.166-6.871,4.2-9.888,6.227-11.582,7.767-19.456,13.7-23.221,16.633-3.764-2.93-11.639-8.866-23.22-16.633-2.111-1.416-4.333-2.837-6.706-4.3a67.044,67.044,0,0,0,17.318-31.635,23,23,0,1,0-20.2-1.793,47.177,47.177,0,0,1-45.161,33.745h-18.9a47.155,47.155,0,0,1-47.1-47.1V195.26a8.927,8.927,0,0,0,2.737-6.431V186.9a9.193,9.193,0,0,0,5.429-2.156c21.845-3.186,37.555-20.885,37.555-42.611V77.979A27.31,27.31,0,0,0,88.7,50.7h-.8V47.861a4,4,0,0,0-4-4h-5.7A11.933,11.933,0,0,0,66.275,55.78v9.838a11.934,11.934,0,0,0,11.919,11.92h5.7a4,4,0,0,0,4-4V70.7h.8a7.288,7.288,0,0,1,7.279,7.28v64.156a22.459,22.459,0,0,1-8.012,17.425,4,4,0,1,0,5.168,6.106,30.738,30.738,0,0,0,10.844-23.531V77.979A15.3,15.3,0,0,0,88.7,62.7h-.8v-4h.8a19.3,19.3,0,0,1,19.279,19.28v64.156c0,16.166-10.746,29.6-26.249,33.774v-7.194a4,4,0,0,0-4-4H43.237a22.988,22.988,0,0,1-18.7-22.58V77.979a7.288,7.288,0,0,1,7.279-7.28h.8v2.839a4,4,0,0,0,4,4h5.7a11.934,11.934,0,0,0,11.92-11.92V55.78a11.934,11.934,0,0,0-11.92-11.919h-5.7a4,4,0,0,0-4,4V50.7h-.8A27.31,27.31,0,0,0,4.534,77.979v64.156C4.534,163.857,20.245,181.559,42.089,184.745ZM79.9,69.538h-1.7a3.924,3.924,0,0,1-3.919-3.92V55.78a3.923,3.923,0,0,1,3.919-3.919h1.7Zm98.445,178.051a15.015,15.015,0,1,1,24.8,11.375c.125-1.67.21-3.35.21-5.051a10,10,0,0,0-20,0c0,1.575-.081,3.132-.233,4.669A14.972,14.972,0,0,1,178.341,247.589Zm-60.986,61.425h18.9a55.186,55.186,0,0,0,53.724-42.9c.023-.094.049-.186.065-.28a55.014,55.014,0,0,0,1.313-11.918,2,2,0,0,1,4,0,59.169,59.169,0,0,1-59.1,59.1h-18.9a59.169,59.169,0,0,1-59.1-59.1V197.787h4v56.126A55.164,55.164,0,0,0,117.355,309.014ZM73.725,177.678a1.222,1.222,0,0,1-.312.8c-.015.019-.026.04-.04.059a1.229,1.229,0,0,1-.885.379h-3.5a4,4,0,0,0-4,4v5.913a.959.959,0,0,1-.958.958H56.475a.959.959,0,0,1-.957-.958v-5.913a4,4,0,0,0-4-4h-3.5a1.239,1.239,0,0,1-1.237-1.238v-4.963H73.725ZM40.611,51.861h1.7a3.924,3.924,0,0,1,3.92,3.919v9.838a3.925,3.925,0,0,1-3.92,3.92h-1.7ZM12.534,77.979A19.3,19.3,0,0,1,31.813,58.7h.8v4h-.8a15.3,15.3,0,0,0-15.279,15.28v64.156a30.806,30.806,0,0,0,22.249,29.7v4.073c-15.5-4.176-26.249-17.611-26.249-33.774Z" style="fill:#494456"/><path d="M330.731,19.082c-.413.077-41.591,7.55-58.731-8.724-.076-.072-.162-.122-.241-.186-.105-.086-.207-.173-.318-.247a3.978,3.978,0,0,0-.349-.2c-.113-.059-.224-.121-.342-.169a3.715,3.715,0,0,0-.383-.124c-.118-.035-.234-.072-.354-.095a3.86,3.86,0,0,0-.4-.049c-.122-.011-.242-.025-.365-.025a3.762,3.762,0,0,0-.4.027c-.123.012-.245.022-.367.045s-.255.065-.383.1a3.519,3.519,0,0,0-.356.116,7.271,7.271,0,0,0-.694.364,3.764,3.764,0,0,0-.329.255c-.077.062-.161.111-.233.18-17.11,16.244-58.32,8.8-58.734,8.724a4,4,0,0,0-4.733,3.932V86.33a63.285,63.285,0,0,0,4.307,23.387c16.26,41.093,59.356,49.547,61.182,49.887h.01a3.968,3.968,0,0,0,.717.067h.009a3.96,3.96,0,0,0,.717-.067h.01c1.826-.34,44.921-8.794,61.182-49.888a63.287,63.287,0,0,0,4.307-23.386V23.014a4,4,0,0,0-4.735-3.932ZM327.466,86.33a55.3,55.3,0,0,1-3.747,20.443c-13.514,34.154-48.951,43.538-54.478,44.808-5.543-1.26-40.917-10.556-54.47-44.808a55.332,55.332,0,0,1-3.746-20.443V27.673c11.539,1.519,41.149,3.823,58.221-9.19,17.07,13.014,46.681,10.71,58.22,9.19Z" style="fill:#494456"/></svg>