<?xml version="1.0" encoding="utf-8"?>
<!-- Generator: Adobe Illustrator 24.3.0, SVG Export Plug-In . SVG Version: 6.00 Build 0)  -->
<svg version="1.1" id="Layer_1" xmlns="http://www.w3.org/2000/svg" xmlns:xlink="http://www.w3.org/1999/xlink" x="0px" y="0px"
	 viewBox="0 0 300 300" enable-background="new 0 0 300 300" xml:space="preserve">
<g>
	<g>
		<g>
			<polygon fill="#D8D8D8" points="46.551,71.201 46.551,228.805 29.387,228.805 29.387,28.767 135.262,28.767 			"/>
		</g>
		<g>
			<rect x="46.551" y="71.201" fill="#F4F4F4" width="105.872" height="200.038"/>
		</g>
		<g>
			<polygon fill="#E5E5E4" points="135.262,71.201 46.551,71.201 135.262,28.761 			"/>
		</g>
		<g>
			<rect x="152.423" y="171.22" fill="#A880B2" width="118.184" height="100.019"/>
		</g>
		<g>
			<path fill="#C09DC9" d="M177.299,200.19c6.21,0,11.265,4.894,11.555,11.037l0.018-0.008l0.036,0.016
				c0.29-6.148,5.346-11.046,11.562-11.046c4.902,0,9.069,3.058,10.762,7.363l59.376-36.333H152.423v28.725l13.947,8.141
				C167.916,203.506,172.196,200.19,177.299,200.19z"/>
		</g>
		<g>
			<path fill="#FE6F80" d="M212.054,211.776c0-6.399-5.186-11.586-11.585-11.586c-6.216,0-11.272,4.899-11.562,11.046l-0.036-0.016
				l-0.018,0.008c-0.29-6.143-5.346-11.037-11.555-11.037c-6.4,0-11.585,5.187-11.585,11.586c0,2.846,1.03,5.449,2.729,7.468l0,0
				l20.441,23.022l20.441-23.022l-0.006-0.003C211.024,217.226,212.054,214.623,212.054,211.776z"/>
		</g>
		<g>
			<path fill="#FFA1AA" d="M177.535,219.244L177.535,219.244c-1.699-2.019-2.729-4.622-2.729-7.468
				c0-4.779,2.895-8.877,7.021-10.648c-1.391-0.596-2.919-0.938-4.529-0.938c-6.4,0-11.585,5.187-11.585,11.586
				c0,2.846,1.03,5.449,2.729,7.468l0,0l20.441,23.022l4.546-5.121L177.535,219.244z"/>
		</g>
		<g>
			<path fill="#A880B2" d="M135.256,175.225c0-5.189-4.203-9.394-9.389-9.394c-5.044,0-9.146,3.971-9.377,8.955l-0.03-0.013
				l-0.012,0.006c-0.237-4.98-4.333-8.948-9.371-8.948c-5.186,0-9.395,4.205-9.395,9.394c0,2.307,0.835,4.418,2.22,6.054h-0.006
				l16.575,18.665l16.576-18.665l-0.006-0.003C134.421,179.642,135.256,177.532,135.256,175.225z"/>
		</g>
		<g>
			<path fill="#FE6F80" d="M99.897,181.279h0.006c-1.385-1.637-2.22-3.747-2.22-6.054c0-5.189,4.209-9.394,9.395-9.394
				c5.038,0,9.134,3.968,9.371,8.948l0.012-0.006l0.03,0.013c0.219-4.693,3.883-8.446,8.519-8.872
				c1.243-2.258,1.983-4.838,1.983-7.601c0-8.736-7.08-15.819-15.818-15.819c-8.489,0-15.398,6.688-15.783,15.082l-0.053-0.022
				l-0.024,0.01c-0.396-8.388-7.293-15.071-15.782-15.071c-8.736,0-15.816,7.083-15.816,15.819c0,3.886,1.403,7.441,3.73,10.198
				h-0.003l27.914,31.433l10.555-11.89L99.897,181.279z"/>
		</g>
		<g>
			<path fill="#B999C1" d="M105.763,181.279h0.006c-1.385-1.637-2.22-3.747-2.22-6.054c0-4.16,2.723-7.647,6.464-8.881
				c-0.923-0.308-1.906-0.512-2.936-0.512c-5.186,0-9.395,4.205-9.395,9.394c0,2.307,0.835,4.418,2.22,6.054h-0.006l16.575,18.665
				l2.93-3.303L105.763,181.279z"/>
		</g>
		<g>
			<path fill="#FFA1AA" d="M76.158,168.511L76.158,168.511c-2.327-2.757-3.728-6.312-3.728-10.198
				c0-7.215,4.859-13.234,11.466-15.136c-1.397-0.402-2.842-0.684-4.363-0.684c-8.736,0-15.816,7.083-15.816,15.819
				c0,3.886,1.403,7.441,3.73,10.198h-0.003l27.914,31.433l4.357-4.906L76.158,168.511z"/>
		</g>
		<g>
			<rect x="46.551" y="71.201" fill="#F9F9F9" width="9.614" height="200.038"/>
		</g>
		<g>
			<rect x="29.387" y="28.767" fill="#E2E2E2" width="9.614" height="200.038"/>
		</g>
		<g>
			<polygon fill="#EFEFEF" points="56.165,71.201 56.165,66.602 46.551,71.201 			"/>
		</g>
	</g>
	<g>
		<g>
			<path fill="#161616" d="M46.551,233.351H29.387c-2.512,0-4.546-2.035-4.546-4.546V65.528c0-2.512,2.035-4.546,4.546-4.546
				s4.546,2.035,4.546,4.546v158.73h8.072V71.201c0-1.751,1.005-3.346,2.584-4.101l70.633-33.786H33.933v12.069
				c0,2.512-2.035,4.546-4.546,4.546s-4.546-2.035-4.546-4.546V28.767c0-2.511,2.035-4.546,4.546-4.546h105.875
				c2.124,0,3.963,1.47,4.434,3.54c0.469,2.072-0.557,4.191-2.472,5.107L51.098,74.066v154.739
				C51.098,231.316,49.063,233.351,46.551,233.351z"/>
		</g>
		<g>
			<path fill="#161616" d="M152.423,275.785H46.551c-2.512,0-4.546-2.035-4.546-4.547V71.201c0-2.512,2.035-4.546,4.546-4.546
				h105.872c2.51,0,4.546,2.035,4.546,4.546v200.038C156.97,273.75,154.933,275.785,152.423,275.785z M51.098,266.692h96.779V75.747
				H51.098V266.692z"/>
		</g>
		<g>
			<path fill="#161616" d="M135.262,75.747h-88.71c-2.124,0-3.963-1.47-4.434-3.54c-0.469-2.071,0.556-4.191,2.472-5.107
				l88.71-42.439c1.41-0.673,3.065-0.579,4.387,0.255c1.32,0.833,2.122,2.285,2.122,3.846v42.439
				C139.808,73.712,137.773,75.747,135.262,75.747z M66.59,66.654h64.125V35.976L66.59,66.654z"/>
		</g>
		<g>
			<g>
				<path fill="#161616" d="M116.472,204.491L116.472,204.491c-1.299,0-2.537-0.556-3.399-1.529l-16.57-18.665
					c-2.195-2.6-3.361-5.791-3.361-9.072c0-7.687,6.251-13.94,13.935-13.94c3.617,0,6.917,1.373,9.396,3.636
					c2.479-2.263,5.778-3.636,9.393-3.636c7.687,0,13.941,6.253,13.941,13.94c0,3.283-1.168,6.473-3.287,8.985l-16.65,18.754
					C119.009,203.934,117.772,204.491,116.472,204.491z M107.077,170.378c-2.67,0-4.842,2.174-4.842,4.847
					c0,1.461,0.621,2.506,1.144,3.124l13.093,14.748l13.176-14.837c0.445-0.53,1.067-1.575,1.067-3.035
					c0-2.673-2.176-4.847-4.848-4.847c-2.589,0-4.709,2.029-4.829,4.619c-0.068,1.453-0.826,2.785-2.039,3.586
					c-1.1,0.725-2.452,0.934-3.703,0.589c-0.395-0.104-0.78-0.262-1.141-0.474c-1.328-0.778-2.177-2.171-2.248-3.709
					C111.787,172.404,109.666,170.378,107.077,170.378z"/>
			</g>
			<g>
				<path fill="#161616" d="M95.356,204.491L95.356,204.491c-1.299,0-2.537-0.556-3.4-1.527L64.046,171.53
					c-3.17-3.759-4.874-8.423-4.874-13.218c0-11.23,9.136-20.366,20.366-20.366c6.379,0,12.084,2.927,15.818,7.539
					c3.734-4.613,9.439-7.539,15.818-7.539c11.231,0,20.37,9.136,20.37,20.366c0,3.388-0.884,6.777-2.557,9.802
					c-0.728,1.317-2.063,2.189-3.562,2.326c-2.39,0.221-4.276,2.178-4.387,4.557c-0.068,1.452-0.826,2.785-2.041,3.585
					c-1.098,0.725-2.451,0.934-3.701,0.589c-0.397-0.104-0.78-0.262-1.141-0.474c-1.328-0.778-2.177-2.171-2.248-3.709
					c-0.12-2.586-2.241-4.612-4.829-4.612c-2.67,0-4.842,2.174-4.842,4.847c0,1.431,0.598,2.463,1.113,3.087l5.969,6.725
					c1.529,1.721,1.529,4.316,0,6.037l-10.561,11.89C97.893,203.934,96.655,204.491,95.356,204.491z M79.538,147.04
					c-6.216,0-11.273,5.057-11.273,11.273c0,2.655,0.944,5.235,2.658,7.267l24.433,27.518l4.481-5.045l-3.334-3.756
					c-0.027-0.028-0.052-0.058-0.077-0.087c-2.118-2.513-3.284-5.704-3.284-8.985c0-7.687,6.251-13.94,13.935-13.94
					c3.635,0,6.95,1.387,9.433,3.672c1.509-1.372,3.321-2.421,5.323-3.03c0.41-1.169,0.617-2.378,0.617-3.614
					c0-6.216-5.058-11.273-11.277-11.273c-6.023,0-10.961,4.721-11.24,10.747c-0.069,1.482-0.857,2.836-2.109,3.629
					c-1.114,0.707-2.473,0.891-3.722,0.52c-0.41-0.114-0.807-0.286-1.175-0.515c-1.271-0.79-2.085-2.15-2.155-3.645
					C90.493,151.755,85.557,147.04,79.538,147.04z"/>
			</g>
		</g>
		<g>
			<path fill="#161616" d="M270.613,275.785h-14.125c-2.51,0-4.546-2.035-4.546-4.547c0-2.511,2.036-4.546,4.546-4.546h9.578
				v-90.926H156.97v90.926h79.373c2.51,0,4.546,2.035,4.546,4.546c0,2.512-2.036,4.547-4.546,4.547h-83.92
				c-2.511,0-4.546-2.035-4.546-4.547V171.22c0-2.512,2.035-4.547,4.546-4.547h118.19c2.51,0,4.547,2.035,4.547,4.547v100.019
				C275.16,273.75,273.123,275.785,270.613,275.785z"/>
		</g>
		<g>
			<path fill="#161616" d="M188.884,246.813L188.884,246.813c-1.299,0-2.537-0.556-3.401-1.527l-20.441-23.022
				c-2.525-3.001-3.874-6.692-3.874-10.487c0-8.896,7.237-16.133,16.132-16.133c4.544,0,8.655,1.872,11.585,4.903
				c2.933-3.031,7.045-4.903,11.585-4.903c8.895,0,16.132,7.237,16.132,16.133c0,3.701-1.282,7.302-3.617,10.175
				c-0.08,0.107-0.163,0.212-0.255,0.312l-20.447,23.022C191.42,246.257,190.183,246.813,188.884,246.813z M177.299,204.736
				c-3.88,0-7.039,3.158-7.039,7.04c0,1.68,0.574,3.247,1.661,4.535l16.963,19.108l16.886-19.012
				c0.027-0.033,0.053-0.065,0.08-0.096c0.755-0.898,1.658-2.414,1.658-4.535c0-3.882-3.158-7.04-7.039-7.04
				c-3.759,0-6.84,2.948-7.015,6.71c-0.068,1.465-0.838,2.807-2.066,3.605c-1.11,0.716-2.469,0.913-3.715,0.558
				c-0.435-0.117-0.855-0.299-1.243-0.546c-1.252-0.793-2.048-2.145-2.116-3.626C184.139,207.68,181.058,204.736,177.299,204.736z"
				/>
		</g>
		<g>
			<path fill="#161616" d="M188.913,215.783c-0.417,0-0.835-0.058-1.24-0.173c-0.435-0.117-0.855-0.299-1.243-0.546
				c-1.252-0.793-2.048-2.145-2.116-3.626c-0.175-3.758-3.256-6.701-7.015-6.701c-2.99,0-5.65,1.93-6.621,4.803
				c-0.435,1.295-1.433,2.325-2.711,2.805c-1.279,0.475-2.708,0.357-3.886-0.332l-13.949-8.141c-1.396-0.815-2.254-2.31-2.254-3.926
				V171.22c0-2.512,2.035-4.547,4.546-4.547h118.19c2.036,0,3.824,1.354,4.375,3.314c0.553,1.959-0.266,4.048-2.001,5.11
				l-59.382,36.333c-1.148,0.702-2.554,0.858-3.821,0.432c-1.276-0.428-2.294-1.398-2.785-2.651
				c-1.066-2.719-3.629-4.475-6.53-4.475c-3.759,0-6.84,2.947-7.015,6.71c-0.068,1.465-0.838,2.807-2.066,3.605
				C190.639,215.536,189.781,215.783,188.913,215.783z M156.97,197.334l7.684,4.486c2.992-3.824,7.613-6.176,12.645-6.176
				c4.544,0,8.655,1.872,11.585,4.903c2.933-3.031,7.045-4.903,11.585-4.903c4.839,0,9.268,2.119,12.263,5.661l41.741-25.538H156.97
				V197.334z"/>
		</g>
	</g>
</g>
</svg>
