<svg xmlns="http://www.w3.org/2000/svg" viewBox="0 0 48 48"><defs><style>.cls-1{fill:#747575;}.cls-2{fill:#c6c3d8;}.cls-3{fill:#dad7e5;}.cls-4{fill:#f6ccaf;}.cls-5{fill:#ffdec7;}.cls-6{fill:#919191;}.cls-7{fill:#a87e6b;}.cls-8{fill:#be927c;}.cls-9{fill:#edebf2;}.cls-10{fill:#edb996;}.cls-11{fill:#db5669;}.cls-12{fill:#f26674;}.cls-13{fill:#7c7d7d;}</style></defs><title>Couple in Love</title><g id="Couple_in_Love" data-name="Couple in Love"><path class="cls-1" d="M47,35V47H35l7-10-3-8h2A6,6,0,0,1,47,35Z"/><polygon class="cls-2" points="39 29 35 47 31 29 39 29"/><polygon class="cls-3" points="38 29 34.5 44.75 31 29 38 29"/><path class="cls-1" d="M25,37.52c0-2.12-1-3.06-1-3.52l-.5-1.41A5.89,5.89,0,0,1,25,30.53C27,28.74,29,29,31,29l-3,8,7,10H25Z"/><path class="cls-4" d="M25,37.52V47H21c0-7.77.32-8.58-1.05-10a3.57,3.57,0,0,0-5.85,1.2L13,41l-1.1-2.75A3.58,3.58,0,0,0,5,39.58V47H1C1,37,.68,36.2,2,34.21c1.92-2.9,4.66-2.68,8-3V27.08a5.34,5.34,0,0,0,6,0v4.17l3.5.29A6,6,0,0,1,25,37.52Z"/><path class="cls-5" d="M25,45H21c0-5.16.36-6.54-1.05-8a3.57,3.57,0,0,0-5.85,1.2L13,41l-1.1-2.75A3.58,3.58,0,0,0,5.36,38,12.54,12.54,0,0,1,4,32.33c1.56-.9,2.67-.8,6-1.08V28.08a5.34,5.34,0,0,0,6,0v3.17c3.41.28,6.09.07,8,3C25.33,36.21,25,37.38,25,45Z"/><path class="cls-3" d="M21,39.58V47H5V39.58a3.58,3.58,0,0,1,5.58-3c1.1.74,1.2,1.32,2.42,4.38l1.1-2.75A3.58,3.58,0,0,1,21,39.58Z"/><polygon class="cls-6" points="42 37 35 47 39 29 42 37"/><polygon class="cls-6" points="35 47 28 37 31 29 35 47"/><path class="cls-4" d="M40.57,17a21.64,21.64,0,0,1-.37,4c-1.49,5.86-10.13,5.1-10.56-1l-.21-3c2.48,0,4.3.27,6.57-2A6.22,6.22,0,0,0,40.57,17Z"/><path class="cls-7" d="M40.57,17A6.22,6.22,0,0,1,36,15c-2.27,2.27-4.15,2-6.57,2A5.58,5.58,0,1,1,40.57,17Z"/><path class="cls-5" d="M36.18,16.18A6.21,6.21,0,0,0,40.5,18a14.77,14.77,0,0,1-.3,3c-3.26,4.13-9.56,1.39-9.56-3,2,0,3.58-.22,5.18-1.82C36.05,16,36,16,36.18,16.18Z"/><path class="cls-8" d="M40.57,17A6.22,6.22,0,0,1,36,15c-1.8,1.8-3.31,2-5.43,2a10.8,10.8,0,0,1,0-3.86C33.73,9.16,40.57,10.87,40.57,17Z"/><path class="cls-7" d="M18.57,20a6.28,6.28,0,0,1-4.82-1.82c-.23-.23-.13-.23-.36,0-2,2-4.1,1.82-6,1.82A5.58,5.58,0,1,1,18.57,20Z"/><path class="cls-3" d="M10,27.08v4.17c-3.41.28-6.09.07-8,3,0-.3-.46,1.1,5.66-16.26-.38,1.23-.24,1.91,0,5.06A5.33,5.33,0,0,0,10,27.08Z"/><path class="cls-2" d="M7.64,23a21.15,21.15,0,0,1-.21-3c-.12-1.68,1-4.18-1,1.39.19,2.75,0,5,2.54,6.71v3.25l1-.08V27.08A5.33,5.33,0,0,1,7.64,23Z"/><path class="cls-4" d="M18.57,20a21.64,21.64,0,0,1-.37,4c-1.49,5.86-10.13,5.1-10.56-1l-.21-3c2.21,0,4,.19,6.14-2A6.28,6.28,0,0,0,18.57,20Z"/><path class="cls-5" d="M18.5,21a14.77,14.77,0,0,1-.3,3c-3.26,4.13-9.56,1.39-9.56-3a6.24,6.24,0,0,0,4.75-1.82c.23-.23.13-.23.36,0A6.24,6.24,0,0,0,18.5,21Z"/><path class="cls-8" d="M18.57,20a6.28,6.28,0,0,1-4.82-1.82c-.23-.23-.13-.23-.36,0A6.26,6.26,0,0,1,8.57,20a10.72,10.72,0,0,1,0-3.87C11.77,12.16,18.57,13.9,18.57,20Z"/><path class="cls-9" d="M24,34v.21c-1.91-2.89-4.6-2.68-8-3V27.08C18.56,25.37,18.36,23,18.57,20,18.57,18,16.51,12.86,24,34Z"/><path class="cls-3" d="M23.07,31.37a5.61,5.61,0,0,0-2.57-.83,3.81,3.81,0,0,1-3.5-3.8c0-.95.2-.46-1,.34v4.17c3.41.28,6.09.07,8,3C24,33.91,24.12,34.36,23.07,31.37Z"/><path class="cls-7" d="M16,13v1.88a5.55,5.55,0,0,0-6,0V13a3,3,0,0,1,6,0Z"/><path class="cls-8" d="M16,13c0,.81.35-.1-3.35.43-1.39.2-2.22-1.37-1.21-3A3,3,0,0,1,16,13Z"/><path class="cls-10" d="M38,24.08V29H32V24.08A5.34,5.34,0,0,0,38,24.08Z"/><path class="cls-4" d="M38,25.62V29H33V26.68a1,1,0,0,1,1.34-.94A5.43,5.43,0,0,0,38,25.62Z"/><path class="cls-11" d="M29.65,8h0L24,13.66,18.34,8h0C14.24,4.38,19.88-1.76,24,2.36A4,4,0,1,1,29.65,8Z"/><path class="cls-12" d="M29.65,8h0L26,11.66,20.34,6h0a4,4,0,0,1-1-4.63,4,4,0,0,1,4.64,1A4,4,0,1,1,29.65,8Z"/><path class="cls-13" d="M27,37l5.56,7.94a8.58,8.58,0,0,1-5-2.46C24.39,39.35,25,36.05,25,30.53A6.56,6.56,0,0,1,30,29Z"/><path class="cls-13" d="M47,35V45H36.4L42,37l-3-8h2A6,6,0,0,1,47,35Z"/><path class="cls-9" d="M21,39.58V45H15.32A8.32,8.32,0,0,1,7,36.37a3.55,3.55,0,0,1,3.58.25c1.1.74,1.2,1.32,2.42,4.38l1.1-2.75A3.58,3.58,0,0,1,21,39.58Z"/></g></svg>