<?xml version="1.0" encoding="utf-8"?>
<!-- Generator: Adobe Illustrator 24.0.0, SVG Export Plug-In . SVG Version: 6.00 Build 0)  -->
<svg version="1.1" xmlns="http://www.w3.org/2000/svg" xmlns:xlink="http://www.w3.org/1999/xlink" x="0px" y="0px"
	 viewBox="0 0 256 256" enable-background="new 0 0 256 256" xml:space="preserve">
<g id="Layer_2" display="none">
	<rect x="-764" y="-1464" display="inline" fill="#FFFFFF" width="1786" height="5896"/>
</g>
<g id="Layer_1">
	<g>
		<path fill="#72C1E8" d="M153.002,160.776h-50c-8.284,0-15-6.716-15-15v-44c0-2.761,2.239-5,5-5h70c2.761,0,5,2.239,5,5v44
			C168.002,154.061,161.286,160.776,153.002,160.776z"/>
		<path fill="#C5E5FE" d="M153.002,153.276h-37.145c-1.381,0-2.5-1.119-2.5-2.5s1.119-2.5,2.5-2.5h37.145c1.379,0,2.5-1.122,2.5-2.5
			v-39c0-1.381,1.119-2.5,2.5-2.5s2.5,1.119,2.5,2.5v39C160.502,149.912,157.137,153.276,153.002,153.276z M105.857,153.276h-2.855
			c-1.381,0-2.5-1.119-2.5-2.5s1.119-2.5,2.5-2.5h2.855c1.381,0,2.5,1.119,2.5,2.5S107.238,153.276,105.857,153.276z"/>
		<path fill="#EFEFEF" d="M112.002,96.776h-16v-24c0-4.418,3.582-8,8-8h0c4.418,0,8,3.582,8,8V96.776z"/>
		<path fill="#EFEFEF" d="M160.002,96.776h-16v-24c0-4.418,3.582-8,8-8h0c4.418,0,8,3.582,8,8V96.776z"/>
		<path fill="#F0C020" d="M139.002,176.776h-22c-2.761,0-5-2.239-5-5v-11h32v11C144.002,174.538,141.763,176.776,139.002,176.776z"
			/>
		<path fill="#AFAFAF" d="M126.835,8.782C62.238,9.396,10.13,61.386,8.065,124.846c-1.808,55.57,34.452,103.689,85.586,118.942
			l4.677-15.303c-44.236-13.149-76.145-54.922-74.247-103.849c2.132-54.955,47.44-99.08,102.431-99.849
			c58.122-0.813,105.488,46.054,105.488,103.99c0,51.555-37.508,94.345-86.726,102.572c-4.858,0.812-9.274-2.976-9.274-7.901
			v-46.671h-16v50.586c0,12.105,10.686,21.555,22.666,19.823c67.378-9.744,105.334-62.771,105.334-118.409
			C248.002,62.097,193.619,8.147,126.835,8.782z"/>
		<g>
			<circle cx="88.002" cy="122.346" r="2.5"/>
			<path d="M126.752,6.282C61.228,6.903,7.647,59.643,5.562,124.846c-0.637,19.916,3.535,39.804,12.45,57.92
				c0.59,1.2,2.13,1.73,3.35,1.14c1.243-0.621,1.736-2.116,1.14-3.35c-8.807-17.912-12.554-36.827-11.939-55.71
				C12.603,62.19,63.286,12.023,126.584,11.284c65.605-0.766,118.918,52.09,118.918,117.492c-0.061,59.45-42.5,107.12-103.19,115.93
				c-10.533,1.524-19.788-6.803-19.81-17.35v-48.08h11v44.17c0.011,6.277,5.562,11.413,12.18,10.37
				c47.348-7.918,83.837-46.935,88.34-94.91c0.146-1.389-0.885-2.586-2.25-2.73c-1.399-0.13-2.59,0.89-2.72,2.26
				c-4.31,45.69-38.93,82.88-84.19,90.45c-3.345,0.556-6.349-2.054-6.359-5.44v-44.17h0.5c4.136,0,7.5-3.364,7.5-7.5v-8.5h6.5
				c9.649,0,17.5-7.85,17.5-17.5v-44c0-4.13-3.37-7.5-7.5-7.5h-0.5v-21.5c0-5.79-4.71-10.5-10.5-10.5s-10.5,4.71-10.5,10.5v21.5h-27
				v-21.5c0-5.79-4.71-10.5-10.5-10.5s-10.5,4.71-10.5,10.5v21.5h-0.5c-4.13,0-7.5,3.37-7.5,7.5v10.57c0,1.38,1.12,2.5,2.5,2.5
				c1.38,0,2.5-1.12,2.5-2.5v-10.57c0-1.38,1.12-2.5,2.5-2.5c37.251,0,26.089,0,70,0c1.38,0,2.5,1.12,2.5,2.5v44
				c-0.01,6.88-5.62,12.49-12.5,12.5c-6.015,0-44.054,0-50,0c-6.88-0.01-12.49-5.62-12.5-12.5v-13.43c0-1.38-1.12-2.5-2.5-2.5
				c-1.38,0-2.5,1.12-2.5,2.5v13.43c0,9.65,7.85,17.5,17.5,17.5h6.5v8.5c0,4.136,3.364,7.5,7.5,7.5h0.5v48.08
				c0.011,13.732,12.157,24.281,25.52,22.3c66.349-9.547,107.543-61.796,107.48-120.88C250.502,60.885,195.222,5.634,126.752,6.282z
				 M109.502,94.276h-11v-21.5c0-3.033,2.467-5.5,5.5-5.5s5.5,2.467,5.5,5.5V94.276z M157.502,94.276h-11v-21.5
				c0-3.033,2.468-5.5,5.5-5.5s5.5,2.467,5.5,5.5V94.276z M117.002,174.276c-1.378,0-2.5-1.122-2.5-2.5v-8.5h27v8.5
				c0,1.378-1.121,2.5-2.5,2.5H117.002z"/>
			<path d="M94.371,241.396c-24.72-7.37-46.66-23.02-61.81-44.07c-0.77-1.07-2.41-1.34-3.49-0.57
				c-1.149,0.829-1.346,2.415-0.57,3.49c16.062,22.312,38.86,38.314,64.44,45.94c1.264,0.387,2.7-0.336,3.11-1.68
				C96.45,243.165,95.677,241.79,94.371,241.396z"/>
			<path d="M23.752,188.296c-1.18,0.71-1.57,2.25-0.86,3.43c0,0.01,0.01,0.01,0.01,0.01c0.701,1.153,2.224,1.555,3.42,0.85
				c1.18-0.71,1.57-2.25,0.86-3.43C26.502,188.016,24.891,187.606,23.752,188.296z"/>
			<path d="M99.042,226.086c-43.469-12.926-74.244-54.443-72.46-101.35c2.08-53.9,45.99-96.7,99.97-97.45
				c51.631-1.072,97.303,37.764,102.48,91.66c0.13,1.37,1.359,2.39,2.729,2.25c1.37-0.13,2.38-1.36,2.25-2.73
				c-5.353-55.727-53.164-97.264-107.53-96.18c-56.324,0.818-102.691,45.906-104.9,102.25c-1.817,50.723,31.128,92.996,76.03,106.34
				c1.416,0.413,2.742-0.435,3.11-1.68C101.121,227.876,100.362,226.476,99.042,226.086z"/>
			<path d="M229.502,128.686c0,0.01,0,0.01,0,0.02c0.01,1.37,1.13,2.48,2.5,2.48c1.38,0,2.49-1.12,2.5-2.49c0,0,0,0,0-0.01
				c0-1.38-1.12-2.5-2.5-2.5C230.599,126.186,229.502,127.318,229.502,128.686z"/>
			<path d="M128.252,110.496c-1.23-0.55-2.75,0.03-3.31,1.25l-5.44,12.06c-0.738,1.623,0.448,3.53,2.28,3.53h8.39l-4.41,8.82
				c-0.617,1.276-0.084,2.758,1.12,3.36c1.258,0.61,2.736,0.111,3.36-1.12l6.22-12.45c0.827-1.656-0.368-3.61-2.24-3.61h-8.57
				l3.85-8.53C130.086,112.483,129.464,111.053,128.252,110.496z"/>
		</g>
	</g>
</g>
</svg>
