<?xml version="1.0" encoding="utf-8"?>
<!-- Generator: Adobe Illustrator 24.0.0, SVG Export Plug-In . SVG Version: 6.00 Build 0)  -->
<svg version="1.1" id="Layer_1" xmlns="http://www.w3.org/2000/svg" xmlns:xlink="http://www.w3.org/1999/xlink" x="0px" y="0px"
	 viewBox="0 0 256 256" style="enable-background:new 0 0 256 256;" xml:space="preserve">
<style type="text/css">
	.st0{fill:#FFB69F;}
	.st1{fill:#72C2E9;}
	.st2{fill:#C2E5FF;}
	.st3{fill:#FC5D3D;}
	.st4{fill:#AFAFAF;}
	.st5{fill:#FFCBC3;}
	.st6{fill:#F0C020;}
	.st7{fill:#F8E5B0;}
	.st8{fill:#EFEFEF;}
	.st9{fill:#EEC21E;}
	.st10{fill:#FFFFFF;}
	.st11{fill:#F1BF21;}
	.st12{fill:#E8A61E;}
	.st13{fill:#7D7B79;}
	.st14{fill:#B34F33;}
	.st15{fill:#F8E5B2;}
	.st16{fill:#C5E5FE;}
	.st17{fill:#4C4944;}
	.st18{fill:#4BA5C8;}
	.st19{fill:#AFAEAF;}
	.st20{fill:#CF941C;}
	.st21{fill:#7C7B7A;}
	.st22{fill:#FAE0E1;}
	.st23{fill:#13BF6D;}
	.st24{fill:#76FFBB;}
	.st25{fill:#F2E1D7;}
	.st26{fill:#878787;}
	.st27{fill:#F9E5AF;}
	.st28{fill:#E8A61F;}
	.st29{fill:none;stroke:#000000;stroke-width:5;stroke-linecap:round;stroke-linejoin:round;stroke-miterlimit:10;}
	.st30{fill:#EFEFF0;}
	.st31{fill:#E8A61B;}
	.st32{fill:#EFEFEE;}
	.st33{fill:#4C4945;}
	.st34{fill:#EA8F7D;}
	.st35{fill:#D6C0B3;}
	.st36{fill:#EEC120;}
</style>
<g>
</g>
<g>
	<rect x="6" y="82.142" class="st19" width="34.763" height="44.366"/>
	<rect x="72.02" y="82.145" class="st19" width="33.498" height="44.361"/>
	<path class="st19" d="M244.162,112.547v45.128h-35.296v-31.169h-41.831V82.145h46.725
		C230.547,82.145,244.162,95.759,244.162,112.547z"/>
	<path class="st30" d="M235.162,151.175c-1.381,0-2.5-1.119-2.5-2.5v-3.477c0-1.381,1.119-2.5,2.5-2.5s2.5,1.119,2.5,2.5v3.477
		C237.662,150.056,236.542,151.175,235.162,151.175z M235.162,137.698c-1.381,0-2.5-1.119-2.5-2.5v-22.65
		c0-10.423-8.48-18.903-18.903-18.903h-37.725c-1.381,0-2.5-1.119-2.5-2.5s1.119-2.5,2.5-2.5h37.725
		c13.18,0,23.903,10.723,23.903,23.903v22.65C237.662,136.579,236.542,137.698,235.162,137.698z"/>
	<rect x="114.096" y="29.961" class="st19" width="44.361" height="43.185"/>
	<path class="st30" d="M149.457,66.646h-11.814c-1.381,0-2.5-1.119-2.5-2.5s1.119-2.5,2.5-2.5h9.314V38.961c0-3.303,5-3.308,5,0
		v25.186C151.957,65.527,150.838,66.646,149.457,66.646z M127.643,66.646h-4.547c-1.381,0-2.5-1.119-2.5-2.5s1.119-2.5,2.5-2.5
		h4.547c1.381,0,2.5,1.119,2.5,2.5S129.023,66.646,127.643,66.646z"/>
	<path class="st6" d="M72.02,79.139v50.368c0,2.761-2.239,5-5,5H45.76c-2.761,0-5-2.239-5-5V79.139c0-2.761,2.239-5,5-5h21.26
		C69.781,74.139,72.02,76.378,72.02,79.139z"/>
	<path class="st27" d="M61.02,126.008h-9.26c-1.381,0-2.5-1.119-2.5-2.5s1.119-2.5,2.5-2.5h6.76V85.139c0-1.381,1.119-2.5,2.5-2.5
		s2.5,1.119,2.5,2.5v38.369C63.52,124.889,62.401,126.008,61.02,126.008z"/>
	<path class="st6" d="M216.18,9.292h-96.539c-3.064,0-5.548,2.484-5.548,5.548v15.123H216.18c5.708,0,10.335-4.627,10.335-10.335
		S221.888,9.292,216.18,9.292z"/>
	<path class="st6" d="M167.034,78.694v53.859c0,6.128-4.968,11.096-11.096,11.096h-39.324c-6.128,0-11.096-4.968-11.096-11.096
		V78.694c0-3.064,2.484-5.548,5.548-5.548h50.42C164.55,73.146,167.034,75.63,167.034,78.694z"/>
	<path class="st27" d="M155.938,135.149h-25.442c-1.381,0-2.5-1.119-2.5-2.5s1.119-2.5,2.5-2.5h23.038V84.146
		c0-1.381,1.119-2.5,2.5-2.5s2.5,1.119,2.5,2.5v48.407C158.534,133.985,157.37,135.149,155.938,135.149z M120.496,135.149h-3.881
		c-1.431,0-2.596-1.164-2.596-2.596c0-1.381,1.119-2.5,2.5-2.5c0,0,0.163,0.096,3.977,0.096c1.381,0,2.5,1.119,2.5,2.5
		S121.877,135.149,120.496,135.149z"/>
	<path class="st1" d="M244.162,230.161c0,9.137-7.407,16.544-16.544,16.544c-9.137,0-16.544-7.407-16.544-16.544
		c0-9.137,16.544-32.078,16.544-32.078S244.162,221.024,244.162,230.161z"/>
	<path class="st6" d="M244.452,177.879h-35.877c-3.064,0-5.548-2.484-5.548-5.548v-9.108c0-3.064,2.484-5.548,5.548-5.548h35.877
		c3.064,0,5.548,2.484,5.548,5.548v9.108C250,175.395,247.516,177.879,244.452,177.879z"/>
	<path d="M188.53,126.508c0-1.38-1.12-2.5-2.5-2.5c-1.37,0-2.49,1.12-2.49,2.5s1.12,2.5,2.49,2.5
		C187.41,129.008,188.53,127.888,188.53,126.508z"/>
	<circle cx="40.76" cy="106.848" r="2.5"/>
	<path d="M246.662,155.491v-42.943c0-18.143-14.76-32.903-32.903-32.903h-44.225v-0.95c0-4.438-3.61-8.048-8.048-8.048h-0.529
		V32.462h55.223c7.078,0,12.835-5.758,12.835-12.835S223.257,6.792,216.18,6.792h-96.539c-4.438,0-8.048,3.61-8.048,8.048v15.122
		c0,0.01,0.003,0.019,0.003,0.029v40.655h-0.529c-4.438,0-8.048,3.61-8.048,8.048v0.95H74.52v-0.507c0-4.13-3.37-7.5-7.5-7.5H45.76
		c-4.13,0-7.5,3.37-7.5,7.5v0.505H6c-1.381,0-2.5,1.119-2.5,2.5s1.119,2.5,2.5,2.5h32.26v12.205c0,1.38,1.12,2.5,2.5,2.5
		s2.5-1.12,2.5-2.5c0-4.462,0-13.264,0-17.71c0-1.38,1.12-2.5,2.5-2.5h21.26c1.38,0,2.5,1.12,2.5,2.5v50.37c0,1.38-1.12,2.5-2.5,2.5
		H45.76c-1.38,0-2.5-1.12-2.5-2.5c0-4.867,0-7.918,0-12.66c0-1.38-1.12-2.5-2.5-2.5s-2.5,1.12-2.5,2.5v7.16H6
		c-1.381,0-2.5,1.119-2.5,2.5s1.119,2.5,2.5,2.5h32.26v0.5c0,4.13,3.37,7.5,7.5,7.5h21.26c4.13,0,7.5-3.37,7.5-7.5v-0.502h28.499
		v3.548c0,7.497,6.099,13.596,13.596,13.596h39.324c7.497,0,13.596-6.099,13.596-13.596v-3.546h6.496c1.38,0,2.5-1.12,2.5-2.5
		s-1.12-2.5-2.5-2.5h-6.496V84.645h44.225c15.386,0,27.903,12.518,27.903,27.903v42.627H211.37v-28.667c0-1.316-1.069-2.5-2.5-2.5
		h-12.84c-1.37,0-2.49,1.12-2.49,2.5s1.12,2.5,2.49,2.5h10.34v26.482c-3.367,0.962-5.842,4.061-5.842,7.733v9.108
		c0,4.438,3.61,8.048,8.048,8.048h35.877c4.438,0,8.048-3.61,8.048-8.048v-9.108C252.5,159.552,250.027,156.454,246.662,155.491z
		 M103.019,124.006H74.52V84.645h28.499V124.006z M116.593,14.84c0-1.681,1.367-3.048,3.048-3.048h96.539
		c4.32,0,7.835,3.515,7.835,7.835s-3.515,7.835-7.835,7.835h-57.713c-0.003,0-0.006-0.001-0.01-0.001h-41.864V14.84z
		 M155.957,32.462v38.185h-39.361V32.462H155.957z M164.534,132.554c0,4.739-3.856,8.596-8.596,8.596h-39.324
		c-4.74,0-8.596-3.856-8.596-8.596V78.694c0-1.681,1.367-3.048,3.048-3.048c22.107,0,28.565,0,50.419,0
		c1.681,0,3.048,1.367,3.048,3.048V132.554z M247.5,172.331c0,1.681-1.367,3.048-3.048,3.048h-35.877
		c-1.681,0-3.048-1.367-3.048-3.048v-9.108c0-1.681,1.367-3.048,3.048-3.048c13.053,0,21.668,0,27.183,0c6.332,0,8.573,0,8.694,0
		c1.681,0,3.048,1.367,3.048,3.048V172.331z"/>
	<path d="M229.66,196.647l-0.01-0.029c-0.991-1.371-3.054-1.403-4.06,0.01c-1.976,2.634-16.9,23.798-17.02,33.53
		c0.01,10.5,8.55,19.04,19.05,19.05c12.11-0.011,20.471-11.144,18.86-21.11c-0.22-1.35-1.52-2.28-2.88-2.06
		c-1.35,0.22-2.28,1.51-2.05,2.87c1.055,7.095-5.017,15.276-13.93,15.3c-7.73-0.021-14.03-6.32-14.05-14.05
		c-0.117-6.246,10.518-22.529,14.05-27.71c0.654,1,2.976,4.327,5.94,9.22c0.748,1.235,2.311,1.539,3.43,0.85
		c1.217-0.746,1.55-2.255,0.85-3.43C234.05,202.817,230.36,197.618,229.66,196.647z"/>
	<path d="M239.45,216.897c-1.2,0.58-1.762,2.062-1.14,3.351c0.61,1.221,2.078,1.748,3.35,1.13c1.232-0.616,1.749-2.093,1.14-3.33
		c0-0.01,0-0.01,0-0.021C242.2,216.828,240.67,216.298,239.45,216.897z"/>
</g>
</svg>
