<?xml version="1.0" encoding="utf-8"?>
<!-- Generator: Adobe Illustrator 24.3.0, SVG Export Plug-In . SVG Version: 6.00 Build 0)  -->
<svg version="1.1" id="Layer_1" xmlns="http://www.w3.org/2000/svg" xmlns:xlink="http://www.w3.org/1999/xlink" x="0px" y="0px"
	 viewBox="0 0 300 300" enable-background="new 0 0 300 300" xml:space="preserve">
<g>
	<g>
		<g>
			<path fill="#727272" d="M204.926,167.86V63.44c0-19.103-10.922-34.593-30.025-34.593h-49.798
				c-19.101,0-30.029,15.49-30.029,34.593v104.42H204.926z"/>
		</g>
		<g>
			<path fill="#848484" d="M134.953,28.847h-9.851c-19.101,0-30.029,15.49-30.029,34.593v104.42h9.851V63.44
				C104.924,44.337,115.853,28.847,134.953,28.847z"/>
		</g>
		<g>
			<path fill="#F4F4F4" d="M138.866,28.847c-1.643,0-13.764,0-13.764,0l-10.898,31.532l20.275,10.41l-10.135,25.763l25.657,20.276
				v-15.226L138.866,28.847z"/>
		</g>
		<g>
			<path fill="#F9F9F9" d="M130.786,96.553l10.135-25.763l-20.275-10.41l10.898-31.532c-3.3,0-6.441,0-6.441,0l-10.898,31.532
				l20.275,10.41l-10.135,25.763l25.657,20.276v-5.091L130.786,96.553z"/>
		</g>
		<g>
			<path fill="#F4F4F4" d="M161.137,28.847c1.64,0,13.764,0,13.764,0l10.895,31.532l-20.276,10.41l10.138,25.763l-25.657,20.276
				v-15.226L161.137,28.847z"/>
		</g>
		<g>
			<path fill="#F9F9F9" d="M185.796,60.379L174.9,28.847c0,0-3.141,0-6.441,0l10.895,31.532l-20.276,10.41l10.138,25.763
				l-19.216,15.185v5.091l25.657-20.276L165.52,70.789L185.796,60.379z"/>
		</g>
		<g>
			<path fill="#F4F4F4" d="M153.444,134.253c0,1.903-1.542,3.442-3.442,3.442c-1.903,0-3.442-1.539-3.442-3.442
				c0-1.9,1.539-3.44,3.442-3.44C151.902,130.814,153.444,132.353,153.444,134.253z"/>
		</g>
		<g>
			<path fill="#F4F4F4" d="M153.444,149.615c0,1.9-1.542,3.439-3.442,3.439c-1.903,0-3.442-1.539-3.442-3.439
				c0-1.903,1.539-3.442,3.442-3.442C151.902,146.173,153.444,147.712,153.444,149.615z"/>
		</g>
		<g>
			<polygon fill="#727272" points="185.876,271.153 161.459,271.153 148.794,184.072 138.221,271.153 111.715,271.153 
				105.653,167.86 191.938,167.86 			"/>
		</g>
		<g>
			<g>
				<polygon fill="#848484" points="105.653,167.86 111.715,271.153 121.944,271.153 115.882,167.86 				"/>
			</g>
			<g>
				<polygon fill="#848484" points="148.794,184.072 161.459,271.153 168.975,271.153 150.001,171.38 				"/>
			</g>
		</g>
		<g>
			<polygon fill="#848484" points="114.308,167.86 117.552,90.112 120.796,167.86 			"/>
		</g>
		<g>
			<polygon fill="#848484" points="178.328,167.86 181.572,90.112 184.816,167.86 			"/>
		</g>
	</g>
	<g>
		<g>
			<path fill="#161616" d="M204.926,172.407H95.074c-2.51,0-4.546-2.036-4.546-4.546V63.44c0-23.046,14.217-39.139,34.575-39.139
				H174.9c20.355,0,34.572,16.093,34.572,39.139v9.398c0,2.51-2.036,4.546-4.547,4.546c-2.51,0-4.546-2.036-4.546-4.546V63.44
				c0-14.957-7.879-30.046-25.479-30.046h-49.798c-17.603,0-25.482,15.09-25.482,30.046v99.874h100.759V92.983
				c0-2.51,2.036-4.546,4.546-4.546c2.51,0,4.547,2.036,4.547,4.546v74.877C209.472,170.37,207.436,172.407,204.926,172.407z"/>
		</g>
		<g>
			<path fill="#161616" d="M150.001,121.374c-1.003,0-2.001-0.331-2.818-0.98l-25.657-20.275c-1.572-1.243-2.146-3.365-1.412-5.23
				l8.628-21.936l-16.617-8.531c-2.013-1.033-2.96-3.389-2.22-5.529l10.898-31.532c0.634-1.832,2.359-3.061,4.298-3.061h13.764
				c2.247,0,4.156,1.64,4.493,3.86l11.135,72.755c0.036,0.228,0.053,0.456,0.053,0.687v15.226c0,1.743-0.997,3.333-2.563,4.091
				C151.354,121.224,150.676,121.374,150.001,121.374z M129.812,95.079l15.643,12.361v-5.491l-10.493-68.555h-6.621l-8.551,24.742
				l16.768,8.611c2.078,1.065,3.007,3.534,2.152,5.707L129.812,95.079z"/>
		</g>
		<g>
			<path fill="#161616" d="M150.001,121.374c-0.675,0-1.353-0.151-1.983-0.456c-1.566-0.758-2.563-2.347-2.563-4.091v-15.226
				c0-0.231,0.018-0.459,0.053-0.687l11.135-72.755c0.338-2.22,2.247-3.86,4.493-3.86H174.9c1.939,0,3.664,1.228,4.298,3.061
				l10.895,31.532c0.737,2.14-0.207,4.496-2.22,5.529l-16.617,8.531l8.631,21.936c0.734,1.862,0.16,3.987-1.412,5.23l-25.657,20.275
				C152.002,121.043,151.005,121.374,150.001,121.374z M154.548,101.949v5.491l15.643-12.361l-8.9-22.626
				c-0.855-2.173,0.074-4.641,2.152-5.707l16.768-8.611l-8.548-24.742h-6.621L154.548,101.949z"/>
		</g>
		<g>
			<path fill="#161616" d="M153.444,134.253c0,1.903-1.542,3.442-3.442,3.442c-1.903,0-3.442-1.539-3.442-3.442
				c0-1.9,1.539-3.44,3.442-3.44C151.902,130.814,153.444,132.353,153.444,134.253z"/>
		</g>
		<g>
			<path fill="#161616" d="M153.444,149.615c0,1.9-1.542,3.439-3.442,3.439c-1.903,0-3.442-1.539-3.442-3.439
				c0-1.903,1.539-3.442,3.442-3.442C151.902,146.173,153.444,147.712,153.444,149.615z"/>
		</g>
		<g>
			<path fill="#161616" d="M117.41,172.407c-0.234,0-0.471-0.018-0.71-0.056c-2.433-0.382-4.111-2.626-3.806-5.053
				c0.207-2.759,0.089-33.444-0.036-52.234c-0.018-2.51,2.007-4.558,4.517-4.576c0.009,0,0.021,0,0.03,0
				c2.498,0,4.529,2.016,4.546,4.517c0.124,19.071,0.287,51.387-0.056,53.56C121.545,170.805,119.609,172.407,117.41,172.407z"/>
		</g>
		<g>
			<path fill="#161616" d="M181.427,172.407c-0.237,0-0.477-0.018-0.716-0.056c-2.433-0.385-4.108-2.631-3.801-5.059
				c0.21-2.771,0.089-33.444-0.035-52.228c-0.018-2.51,2.004-4.558,4.517-4.576c0.009,0,0.021,0,0.03,0
				c2.498,0,4.529,2.016,4.546,4.517c0.127,19.071,0.287,51.39-0.056,53.566C185.556,170.811,183.623,172.407,181.427,172.407z"/>
		</g>
		<g>
			<path fill="#161616" d="M185.876,275.699h-24.416c-2.258,0-4.174-1.658-4.499-3.892l-7.761-53.359l-6.464,53.252
				c-0.278,2.282-2.214,3.999-4.514,3.999h-26.506c-2.406,0-4.398-1.877-4.538-4.28l-3.919-66.779
				c-0.148-2.507,1.764-4.659,4.271-4.804c2.537-0.192,4.656,1.767,4.804,4.271l3.67,62.499h18.189l10.087-83.082
				c0.275-2.261,2.181-3.972,4.461-3.999c2.362,0,4.224,1.637,4.552,3.892l12.1,83.189h16.194l5.529-94.2h-76.641l0.678,11.556
				c0.148,2.507-1.764,4.659-4.271,4.804c-2.563,0.172-4.656-1.767-4.804-4.271l-0.962-16.368c-0.074-1.249,0.37-2.475,1.228-3.386
				c0.861-0.912,2.057-1.427,3.309-1.427h86.285c1.252,0,2.448,0.515,3.306,1.427c0.861,0.912,1.305,2.137,1.231,3.386
				l-6.062,103.292C190.274,273.823,188.282,275.699,185.876,275.699z"/>
		</g>
	</g>
</g>
</svg>
