<?xml version="1.0" encoding="iso-8859-1"?>
<!-- Generator: Adobe Illustrator 19.0.0, SVG Export Plug-In . SVG Version: 6.00 Build 0)  -->
<svg xmlns="http://www.w3.org/2000/svg" xmlns:xlink="http://www.w3.org/1999/xlink" version="1.1" id="Layer_1" x="0px" y="0px" viewBox="0 0 512 512" style="enable-background:new 0 0 512 512;" xml:space="preserve">
<path style="fill:#FF507D;" d="M466.756,439.266H45.244c-20.243,0-36.653-16.41-36.653-36.653V182.694h494.819v219.919  C503.409,422.856,486.999,439.266,466.756,439.266z"/>
<path style="fill:#D23C69;" d="M362.64,402.613c-8.615,0-12.602-10.978-5.788-16.249C395.818,356.223,420.94,309.08,420.94,256  c0-26.369-6.344-51.201-17.347-73.306H108.408C97.406,204.799,91.06,229.631,91.06,256c0,53.08,25.121,100.223,64.087,130.364  c6.814,5.271,2.827,16.249-5.788,16.249h-12.483c-50.608,0-91.633-41.025-91.633-91.633V182.694H8.591v219.919  c0,20.243,16.41,36.653,36.653,36.653h421.512c20.244,0,36.653-16.41,36.653-36.653H362.64z"/>
<path style="fill:#D5DCED;" d="M466.756,72.734H45.244c-20.243,0-36.653,16.41-36.653,36.653v82.47h494.819v-82.47  C503.409,89.144,486.999,72.734,466.756,72.734z"/>
<path style="fill:#C7CFE2;" d="M407.999,191.857C382.973,132.627,324.342,91.06,256,91.06s-126.974,41.567-151.999,100.796H407.999z  "/>
<circle style="fill:#707487;" cx="256" cy="256" r="137.45"/>
<circle style="fill:#464655;" cx="256" cy="256" r="100.796"/>
<circle style="fill:#707487;" cx="443.848" cy="132.295" r="22.908"/>
<path style="fill:#C7CFE2;" d="M45.244,72.734c-20.243,0-36.653,16.41-36.653,36.653v82.47h36.653V72.734z"/>
<path style="fill:#5B5D6E;" d="M256,327.588c-39.789,0-72.161-32.372-72.161-72.161s32.372-72.161,72.161-72.161  s72.161,32.372,72.161,72.161S295.789,327.588,256,327.588z M256,200.447c-30.316,0-54.98,24.664-54.98,54.98  s24.664,54.98,54.98,54.98s54.98-24.664,54.98-54.98S286.316,200.447,256,200.447z"/>
<g>
	<circle style="fill:#FFFFFF;" cx="288.072" cy="223.928" r="22.908"/>
	<circle style="fill:#FFFFFF;" cx="223.928" cy="288.072" r="13.745"/>
</g>
<path d="M466.756,64.143H45.244C20.297,64.143,0,84.44,0,109.387v293.226c0,24.947,20.297,45.244,45.244,45.244h421.512  c24.947,0,45.244-20.297,45.244-45.244V109.387C512,84.44,491.703,64.143,466.756,64.143z M45.244,81.324h421.512  c15.473,0,28.063,12.589,28.063,28.063v73.879H382.605C357.358,139.49,310.064,109.96,256,109.96s-101.358,29.53-126.605,73.306  H17.181v-73.879C17.181,93.914,29.77,81.324,45.244,81.324z M256,127.141c71.053,0,128.859,57.806,128.859,128.859  S327.053,384.859,256,384.859S127.141,327.053,127.141,256S184.947,127.141,256,127.141z M466.756,430.676H45.244  c-15.473,0-28.063-12.589-28.063-28.063V200.447h103.766c-7.074,17.134-10.988,35.894-10.988,55.553  c0,80.527,65.513,146.04,146.04,146.04S402.04,336.527,402.04,256c0-19.659-3.914-38.418-10.988-55.553h103.766v202.166  C494.819,418.086,482.23,430.676,466.756,430.676z"/>
<path d="M172.951,321.731c1.681,0,3.38-0.493,4.869-1.519c3.906-2.694,4.889-8.043,2.196-11.949  c-25.229-36.583-20.693-85.983,10.786-117.462s80.879-36.015,117.462-10.786c3.905,2.693,9.255,1.71,11.949-2.196  s1.711-9.256-2.196-11.949c-43.41-29.938-102.021-24.563-139.365,12.782c-37.344,37.344-42.718,95.955-12.782,139.365  C167.537,320.433,170.221,321.731,172.951,321.731z"/>
<path d="M321.199,321.199c-17.86,17.86-41.483,27.048-65.267,27.046c-18.135-0.001-36.368-5.346-52.194-16.26  c-3.906-2.695-9.256-1.711-11.949,2.196c-2.694,3.906-1.711,9.256,2.196,11.949c18.788,12.957,40.417,19.299,61.944,19.298  c28.21-0.001,56.24-10.899,77.421-32.08c37.344-37.344,42.718-95.955,12.782-139.365c-2.694-3.905-8.043-4.889-11.949-2.196  c-3.906,2.694-4.889,8.043-2.196,11.949C357.214,240.322,352.679,289.721,321.199,321.199z"/>
<path d="M256,183.266c-4.744,0-8.591,3.846-8.591,8.591c0,4.744,3.846,8.591,8.591,8.591c30.632,0,55.553,24.921,55.553,55.553  c0,4.744,3.846,8.591,8.591,8.591c4.744,0,8.591-3.846,8.591-8.591C328.734,215.894,296.106,183.266,256,183.266z"/>
<path d="M443.848,163.794c17.369,0,31.499-14.13,31.499-31.499s-14.13-31.499-31.499-31.499c-17.369,0-31.499,14.13-31.499,31.499  S426.479,163.794,443.848,163.794z M443.848,117.978c7.895,0,14.318,6.422,14.318,14.318s-6.422,14.318-14.318,14.318  c-7.895,0-14.318-6.422-14.318-14.318S435.953,117.978,443.848,117.978z"/>
<g>
</g>
<g>
</g>
<g>
</g>
<g>
</g>
<g>
</g>
<g>
</g>
<g>
</g>
<g>
</g>
<g>
</g>
<g>
</g>
<g>
</g>
<g>
</g>
<g>
</g>
<g>
</g>
<g>
</g>
</svg>
