<?xml version="1.0" encoding="utf-8"?>
<!-- Generator: Adobe Illustrator 24.3.0, SVG Export Plug-In . SVG Version: 6.00 Build 0)  -->
<svg version="1.1" id="Layer_1" xmlns="http://www.w3.org/2000/svg" xmlns:xlink="http://www.w3.org/1999/xlink" x="0px" y="0px"
	 viewBox="0 0 300 300" enable-background="new 0 0 300 300" xml:space="preserve">
<g>
	<g>
		<g>
			<path fill="#F4F4F4" d="M210.123,138.823c0-4.464-13.115-8.084-29.297-8.084c-9.7,0-23.881,3.845-29.142,7.252
				c-5.252-3.478-18.451-7.252-29.143-7.252c-16.182,0-29.299,3.62-29.299,8.084l45.61,47.628v72.11
				c0,7.003,5.675,12.677,12.677,12.677c7.003,0,12.68-5.674,12.68-12.677v-72.11l46.406-47.628H210.123z"/>
		</g>
		<g>
			<path fill="#F9F9F9" d="M149.648,258.561v-72.11l-45.61-47.628c0-3.857,9.808-7.08,22.916-7.885
				c-1.498-0.127-2.978-0.198-4.412-0.198c-16.182,0-29.299,3.62-29.299,8.084l45.609,47.628v72.11
				c0,7.003,5.676,12.677,12.678,12.677c1.939,0,3.755-0.468,5.397-1.246C152.637,267.962,149.648,263.626,149.648,258.561z"/>
		</g>
		<g>
			<path fill="#9AE8CE" d="M97.306,134.73c0,0-26.201-5.5-31.758-46.927c0,0,28.724-2.025,39.62,17.171v19.704
				c0,0,0.278,4.943,0.914,7.459C106.082,132.137,101.54,132.255,97.306,134.73z"/>
		</g>
		<g>
			<path fill="#AEF4DB" d="M75.068,88.161c-5.546-0.633-9.521-0.358-9.521-0.358c5.557,41.427,31.758,46.927,31.758,46.927
				c1.547-0.903,3.129-1.489,4.521-1.871C93.988,129.026,79.175,117.962,75.068,88.161z"/>
		</g>
		<g>
			<path fill="#9AE8CE" d="M122.896,78.062C111.463,51.269,88.28,42.587,88.28,42.587c-6.82,25.006,3.953,50.437,3.953,50.437
				c0.013,0.021,0.028,0.035,0.043,0.056c5.038,2.563,9.725,6.313,12.892,11.893V91.941c2.946,0,5.726,0.287,8.359,0.79
				c-0.019-0.287-0.086-0.559-0.086-0.852C113.441,85.583,117.368,80.232,122.896,78.062z"/>
		</g>
		<g>
			<path fill="#AEF4DB" d="M99.095,93.081c-0.015-0.021-0.03-0.035-0.043-0.056c0,0-9.867-23.398-4.659-47.374
				c-3.669-2.134-6.114-3.063-6.114-3.063c-6.82,25.006,3.953,50.437,3.953,50.437c0.013,0.021,0.028,0.035,0.043,0.056
				c5.038,2.563,9.725,6.313,12.892,11.893v-7.906C103.254,95.514,101.222,94.164,99.095,93.081z"/>
		</g>
		<g>
			<polygon fill="#FE6F80" points="164.206,198.794 138.852,207.133 138.852,221.207 164.206,212.863 			"/>
		</g>
		<g>
			<polygon fill="#FFA1AA" points="138.852,207.133 138.852,221.207 149.646,217.655 149.646,203.584 			"/>
		</g>
		<g>
			<polygon fill="#FE6F80" points="138.852,240.787 138.852,254.861 164.206,246.52 164.206,232.449 			"/>
		</g>
		<g>
			<polygon fill="#FFA1AA" points="138.852,240.787 138.852,254.861 149.646,251.309 149.646,237.238 			"/>
		</g>
		<g>
			<path fill="#FE6F80" d="M128.358,98.583c16.351,10.25,23.097,28.732,23.101,28.744c0.035-0.527,0.08-1.054,0.08-1.589V91.941
				c-16.898,0-23.186,6.636-23.186,6.636L128.358,98.583z"/>
		</g>
		<g>
			<path fill="#FFA1AA" d="M135.452,100.184l-0.006-0.006c0,0,4.516-4.721,16.093-6.192v-2.045c-16.898,0-23.186,6.636-23.186,6.636
				l0.006,0.006c16.351,10.25,23.097,28.732,23.101,28.744c0.035-0.527,0.08-1.054,0.08-1.589v-9.744
				C147.827,110.627,142.547,104.633,135.452,100.184z"/>
		</g>
		<g>
			<path fill="#FF8095" d="M128.375,98.598c-0.007-0.006-0.012-0.009-0.016-0.015l-0.006-0.006c0,0,4.15-4.381,14.764-6.02
				c0.009-0.231,0.068-0.444,0.068-0.678c0-8.211-6.658-14.871-14.872-14.871c-8.214,0-14.872,6.66-14.872,14.871
				c0,0.299,0.071,0.577,0.087,0.87C119.161,93.827,124.102,95.919,128.375,98.598z"/>
		</g>
		<g>
			<path fill="#FF97AD" d="M128.542,98.577c0,0,1.45-1.471,4.683-3.028c-3.507-1.817-7.403-3.241-11.708-4.064
				c-0.016-0.293-0.087-0.571-0.087-0.87c0-5.97,3.542-11.085,8.621-13.45c-0.516-0.056-1.018-0.157-1.548-0.157
				c-8.214,0-14.872,6.66-14.872,14.871c0,0.299,0.071,0.577,0.087,0.87c5.633,1.077,10.574,3.17,14.847,5.849
				c-0.007-0.006-0.012-0.009-0.016-0.015L128.542,98.577z"/>
		</g>
		<g>
			<path fill="#FF8095" d="M174.664,98.598c-0.006-0.006-0.006-0.009-0.015-0.015l-0.009-0.006c0,0,4.156-4.381,14.77-6.02
				c0.006-0.231,0.068-0.444,0.068-0.678c0-8.211-6.66-14.871-14.877-14.871c-8.211,0-14.871,6.66-14.871,14.871
				c0,0.299,0.074,0.577,0.089,0.87C165.452,93.827,170.395,95.919,174.664,98.598z"/>
		</g>
		<g>
			<path fill="#FF97AD" d="M174.643,98.577c0,0,1.45-1.471,4.682-3.028c-3.51-1.817-7.406-3.241-11.71-4.064
				c-0.018-0.293-0.089-0.571-0.089-0.87c0-5.97,3.543-11.085,8.622-13.45c-0.518-0.056-1.018-0.157-1.548-0.157
				c-8.214,0-14.871,6.66-14.871,14.871c0,0.299,0.071,0.577,0.086,0.87c5.633,1.077,10.576,3.17,14.847,5.849
				c-0.009-0.006-0.012-0.009-0.015-0.015L174.643,98.577z"/>
		</g>
		<g>
			<path fill="#FE6F80" d="M174.649,98.583c16.348,10.25,23.099,28.732,23.099,28.744c0.038-0.527,0.083-1.054,0.083-1.589V91.941
				c-16.898,0-23.191,6.636-23.191,6.636L174.649,98.583z"/>
		</g>
		<g>
			<path fill="#F96982" d="M180.826,130.74c5.943,0,11.467,0.491,16.087,1.332c0.432-1.524,0.725-3.108,0.835-4.745
				c-0.003-0.021-12.893-35.386-46.289-35.386v33.797c0,3.943,0.99,7.651,2.726,10.904
				C160.586,133.644,172.396,130.74,180.826,130.74z"/>
		</g>
		<g>
			<g>
				<path fill="#FF7D99" d="M157.606,125.738V92.358c-1.969-0.27-4.014-0.417-6.146-0.417v33.797c0,3.943,0.99,7.651,2.726,10.904
					c1.479-0.693,3.266-1.376,5.214-2.024C158.26,131.879,157.606,128.89,157.606,125.738z"/>
			</g>
			<g>
				<path fill="#FF7D99" d="M186.974,130.74c-0.672,0-1.397,0.047-2.104,0.083c4.401,0.169,8.492,0.604,12.044,1.249
					c0.077-0.266,0.121-0.542,0.189-0.811C193.936,130.935,190.546,130.74,186.974,130.74z"/>
			</g>
		</g>
		<g>
			<g>
				<path fill="#9AE8CE" d="M236.126,78.746c-1.811-1.56-19.219-2.546-37.639,18.855c-0.234,0.272-0.429,0.542-0.657,0.814v27.323
					c0,0.536-0.044,1.063-0.083,1.589c-0.109,1.637-0.402,3.22-0.835,4.745c-0.08-0.015-0.172-0.024-0.252-0.038
					c3.366,0.598,6.272,1.374,8.501,2.291c5.334-3.096,11.41-7.983,17.922-15.549C241.318,97.586,238.281,80.596,236.126,78.746z"/>
			</g>
		</g>
		<g>
			<path fill="#AEF4DB" d="M202.345,132.033c0.08,0.015,0.172,0.024,0.252,0.038c0.432-1.524,0.725-3.108,0.835-4.745
				c0.038-0.527,0.083-1.054,0.083-1.589V98.414c0.228-0.272,0.423-0.542,0.657-0.814c12.029-13.974,23.594-18.378,30.698-19.337
				c-4.626-1.001-20.098,0.42-36.381,19.337c-0.234,0.272-0.429,0.542-0.657,0.814v27.323c0,0.536-0.044,1.063-0.083,1.589
				c-0.109,1.637-0.402,3.22-0.835,4.745c-0.08-0.015-0.172-0.024-0.252-0.038c3.366,0.598,6.272,1.374,8.501,2.291
				c0.654-0.379,1.32-0.787,1.998-1.225C205.696,132.702,204.085,132.341,202.345,132.033z"/>
		</g>
		<g>
			<path fill="#F96982" d="M122.541,130.74c9.123,0,20.05,2.747,26.33,5.712c1.445-2.765,2.367-5.846,2.588-9.125
				c-0.006-0.021-12.896-35.386-46.292-35.386v33.797c0,2.223,0.332,4.363,0.914,6.399
				C110.774,131.255,116.437,130.74,122.541,130.74z"/>
		</g>
		<g>
			<g>
				<path fill="#FF7D99" d="M111.585,125.738V92.406c-2.051-0.296-4.186-0.465-6.417-0.465v33.797c0,2.223,0.332,4.363,0.914,6.399
					c1.915-0.361,4.027-0.639,6.229-0.867C111.87,129.491,111.585,127.652,111.585,125.738z"/>
			</g>
			<g>
				<path fill="#FF7D99" d="M128.958,130.74c-1.371,0-2.71,0.035-4.03,0.086c8.582,0.411,18.199,2.915,23.943,5.627
					c0.361-0.689,0.688-1.4,0.981-2.128C143.695,132.294,135.818,130.74,128.958,130.74z"/>
			</g>
		</g>
		<g>
			<path fill="#A880B2" d="M165.855,42.584c0,5.041-4.088,9.128-9.128,9.128c-5.036,0-9.124-4.088-9.124-9.128
				c0-5.038,4.088-9.125,9.124-9.125C161.767,33.459,165.855,37.546,165.855,42.584z"/>
		</g>
		<g>
			<path fill="#B999C1" d="M155.43,42.587c0-3.632,2.14-6.743,5.212-8.211c-1.19-0.568-2.51-0.914-3.916-0.914
				c-5.036,0-9.124,4.088-9.124,9.125c0,5.041,4.088,9.128,9.124,9.128c1.406,0,2.726-0.346,3.916-0.914
				C157.57,49.333,155.43,46.222,155.43,42.587z"/>
		</g>
		<g>
			<path fill="#A880B2" d="M224.769,63.357c0,4.171-3.386,7.557-7.557,7.557c-4.171,0-7.554-3.386-7.554-7.557
				c0-4.17,3.383-7.554,7.554-7.554C221.383,55.803,224.769,59.187,224.769,63.357z"/>
		</g>
		<g>
			<path fill="#B999C1" d="M214.205,63.357c0-3.374,2.229-6.198,5.281-7.166c-0.722-0.231-1.477-0.388-2.273-0.388
				c-4.171,0-7.554,3.383-7.554,7.554c0,4.171,3.383,7.557,7.554,7.557c0.796,0,1.551-0.157,2.273-0.388
				C216.434,69.555,214.205,66.731,214.205,63.357z"/>
		</g>
		<g>
			<path fill="#A880B2" d="M77.353,36.315c0,4.17-3.386,7.556-7.556,7.556c-4.171,0-7.554-3.386-7.554-7.556
				c0-4.171,3.383-7.554,7.554-7.554C73.967,28.762,77.353,32.145,77.353,36.315z"/>
		</g>
		<g>
			<path fill="#B999C1" d="M66.789,36.315c0-3.374,2.229-6.198,5.281-7.166c-0.722-0.231-1.477-0.388-2.273-0.388
				c-4.171,0-7.554,3.383-7.554,7.554c0,4.17,3.383,7.556,7.554,7.556c0.796,0,1.551-0.157,2.273-0.388
				C69.018,42.513,66.789,39.689,66.789,36.315z"/>
		</g>
		<g>
			<path fill="#A880B2" d="M87.939,81.336c0,4.17-3.386,7.557-7.557,7.557c-4.17,0-7.554-3.386-7.554-7.557
				c0-4.171,3.383-7.554,7.554-7.554C84.553,73.782,87.939,77.165,87.939,81.336z"/>
		</g>
		<g>
			<path fill="#B999C1" d="M77.375,81.336c0-3.374,2.229-6.198,5.281-7.166c-0.722-0.231-1.477-0.388-2.273-0.388
				c-4.17,0-7.554,3.383-7.554,7.554c0,4.17,3.383,7.557,7.554,7.557c0.796,0,1.551-0.157,2.273-0.388
				C79.604,87.534,77.375,84.71,77.375,81.336z"/>
		</g>
		<g>
			<path fill="#A880B2" d="M150.259,65.692c0,3.907-3.167,7.074-7.073,7.074c-3.907,0-7.074-3.167-7.074-7.074
				c0-3.904,3.167-7.071,7.074-7.071C147.092,58.621,150.259,61.788,150.259,65.692z"/>
		</g>
		<g>
			<path fill="#B999C1" d="M141.56,65.692c0-2.939,1.797-5.458,4.35-6.524c-0.838-0.352-1.757-0.548-2.723-0.548
				c-3.907,0-7.074,3.167-7.074,7.071c0,3.907,3.167,7.074,7.074,7.074c0.967,0,1.886-0.195,2.723-0.547
				C143.356,71.154,141.56,68.634,141.56,65.692z"/>
		</g>
		<g>
			<path fill="#A880B2" d="M151.459,91.944v-0.003c0.012,0,0.022,0,0.034,0c0.016,0,0.029,0,0.046,0v0.003
				c1.527,0.003,2.997,0.104,4.438,0.245c0.024-0.444,0.006-0.897-0.109-1.353c-0.05-0.207-5.078-20.862,3.292-37.203
				c0.4-0.781,0.539-1.622,0.473-2.436c-0.917,0.308-1.885,0.515-2.907,0.515c-2.18,0-4.156-0.799-5.726-2.075
				c-8.883,17.496-5.128,38.047-4.157,42.504C148.294,92.027,149.811,91.947,151.459,91.944z"/>
		</g>
		<g>
			<path fill="#9AE8CE" d="M189.478,91.879c0,0.234-0.062,0.444-0.068,0.675c0.169-0.024,0.355-0.041,0.527-0.068
				c2.264-3.999,4.387-9.031,6.1-15.368c6.346-23.469-2.839-35.771-5.313-36.437c-2.081-0.562-16.537,5.082-22.951,28.788
				c-1.003,3.709-1.563,7.157-1.835,10.369c2.445-1.764,5.42-2.83,8.664-2.83C182.818,77.008,189.478,83.668,189.478,91.879z"/>
		</g>
		<g>
			<path fill="#AEF4DB" d="M175.167,69.469c4.33-16.004,12.316-23.759,17.694-26.944c-0.861-1.077-1.637-1.711-2.137-1.844
				c-2.081-0.562-16.537,5.082-22.951,28.788c-1.003,3.709-1.563,7.157-1.835,10.369c2.211-1.595,4.866-2.572,7.749-2.756
				C174.007,74.661,174.439,72.157,175.167,69.469z"/>
		</g>
		<g>
			<path fill="#FFA1AA" d="M181.741,100.184l-0.006-0.006c0,0,4.517-4.721,16.096-6.192v-2.045c-16.901,0-23.188,6.636-23.188,6.636
				l0.006,0.006c16.351,10.25,23.099,28.732,23.099,28.744c0.035-0.527,0.083-1.054,0.083-1.589v-9.744
				C194.119,110.627,188.839,104.633,181.741,100.184z"/>
		</g>
	</g>
	<g>
		<g>
			<path fill="#161616" d="M97.31,139.276c-0.312,0-0.625-0.033-0.934-0.098c-1.199-0.252-29.414-6.666-35.333-50.772
				c-0.167-1.243,0.188-2.501,0.981-3.475c0.793-0.974,1.954-1.575,3.206-1.664c1.297-0.089,31.722-1.98,43.894,19.462
				c0.389,0.684,0.593,1.456,0.593,2.244v19.704c0.092,1.492,0.392,4.831,0.774,6.349c0.337,1.338,0.047,2.759-0.787,3.857
				c-0.833,1.101-2.122,1.761-3.503,1.797c-0.007,0.003-3.487,0.157-6.598,1.974C98.904,139.063,98.111,139.276,97.31,139.276z
				 M70.895,92.367c5.384,28.128,21.057,35.762,25.944,37.484c1.427-0.663,2.821-1.131,4.074-1.462
				c-0.178-1.726-0.263-3.173-0.28-3.457l-0.007-18.701C93.535,95.067,78.689,92.773,70.895,92.367z"/>
		</g>
		<g>
			<path fill="#161616" d="M105.172,109.52c-1.607,0-3.132-0.855-3.954-2.303c-2.377-4.185-6.078-7.58-11-10.084
				c-0.651-0.332-1.214-0.814-1.638-1.409c-0.089-0.124-0.213-0.311-0.288-0.444c-0.089-0.157-0.169-0.317-0.24-0.482
				c-0.465-1.098-11.305-27.184-4.154-53.406c0.337-1.234,1.177-2.267,2.315-2.85c1.137-0.583,2.471-0.663,3.666-0.21
				c1.021,0.382,25.145,9.688,37.203,37.946c0.483,1.131,0.487,2.406,0.012,3.54c-0.474,1.134-1.387,2.028-2.531,2.478
				c-3.993,1.566-6.572,5.328-6.572,9.584c0.032,0.08,0.061,0.302,0.077,0.524c0.102,1.409-0.457,2.785-1.513,3.727
				c-1.057,0.938-2.492,1.329-3.874,1.069c-0.978-0.186-1.967-0.337-2.96-0.45v8.226c0,2.063-1.39,3.869-3.386,4.396
				C105.947,109.473,105.557,109.52,105.172,109.52z M92.237,93.024h0.03H92.237z M95.884,89.854
				c1.696,0.953,3.278,1.998,4.742,3.135v-1.048c0-2.51,2.035-4.546,4.547-4.546c1.4,0,2.803,0.059,4.2,0.18
				c1.043-4.632,3.75-8.693,7.619-11.449c-7.592-15.102-19.086-23.286-25.516-26.921C88.377,67.388,94.054,84.885,95.884,89.854z"/>
		</g>
		<g>
			<path fill="#161616" d="M138.856,225.753c-0.946,0-1.88-0.296-2.665-0.864c-1.181-0.855-1.881-2.223-1.881-3.682v-14.074
				c0-1.963,1.261-3.706,3.126-4.319l25.356-8.338c1.388-0.456,2.904-0.219,4.088,0.636c1.181,0.855,1.88,2.223,1.88,3.682v14.069
				c0,1.962-1.261,3.706-3.126,4.319l-25.356,8.344C139.812,225.679,139.332,225.753,138.856,225.753z M143.402,210.424v4.502
				l16.263-5.354v-4.496L143.402,210.424z"/>
		</g>
		<g>
			<path fill="#161616" d="M138.856,259.408c-0.946,0-1.88-0.296-2.665-0.864c-1.181-0.855-1.881-2.223-1.881-3.682v-14.074
				c0-1.962,1.261-3.706,3.126-4.318l25.356-8.338c1.388-0.459,2.904-0.219,4.088,0.636c1.181,0.855,1.88,2.223,1.88,3.682v14.072
				c0,1.962-1.261,3.706-3.126,4.318l-25.356,8.341C139.812,259.334,139.332,259.408,138.856,259.408z M143.402,244.078v4.502
				l16.263-5.352v-4.499L143.402,244.078z"/>
		</g>
		<g>
			<path fill="#161616" d="M151.53,275.785c-9.495,0-17.221-7.725-17.221-17.224v-72.11c0-2.51,2.035-4.546,4.546-4.546h25.359
				c2.51,0,4.547,2.036,4.547,4.546v72.11C168.762,268.06,161.03,275.785,151.53,275.785z M143.402,190.998v67.563
				c0,4.484,3.647,8.131,8.128,8.131c4.489,0,8.138-3.647,8.138-8.131v-67.563H143.402z"/>
		</g>
		<g>
			<path fill="#161616" d="M151.436,131.746c-1.897,0-3.596-1.098-4.245-2.862l0,0c-0.064-0.172-6.463-17.182-21.246-26.45
				c-0.29-0.181-0.558-0.394-0.799-0.636l-0.006-0.006c-1.742-1.74-1.78-4.555-0.086-6.343c0.781-0.823,8.165-8.054,26.488-8.054
				c2.512,0,4.548,2.036,4.548,4.546v33.796c0,0.553-0.035,1.101-0.074,1.649c-0.157,2.229-1.921,4.144-4.148,4.339
				C151.723,131.737,151.578,131.746,151.436,131.746z M136.586,98.956c4.215,3.514,7.66,7.435,10.41,11.186V96.674
				C142.443,97.059,139.028,97.991,136.586,98.956z"/>
		</g>
		<g>
			<path fill="#161616" d="M128.375,103.144c-0.829,0-1.663-0.225-2.411-0.693c-4.105-2.575-8.576-4.336-13.287-5.236
				c-2.042-0.391-3.558-2.116-3.684-4.191c-0.059-0.382-0.098-0.758-0.098-1.146c0-10.706,8.711-19.417,19.42-19.417
				c10.709,0,19.42,8.711,19.42,19.417c0,0.358-0.035,0.699-0.086,1.042c-0.109,2.152-1.708,3.801-3.838,4.129
				c-7.536,1.163-11.123,3.786-11.961,4.481C130.962,102.585,129.677,103.144,128.375,103.144z M118.336,89.215
				c3.352,0.944,6.586,2.25,9.672,3.91c2.119-1.365,5.44-3.034,10.198-4.218c-1.279-4.247-5.229-7.353-9.891-7.353
				C123.543,81.555,119.514,84.811,118.336,89.215z"/>
		</g>
		<g>
			<path fill="#161616" d="M197.757,131.782c-0.056,0-0.109,0-0.166-0.003c-1.897-0.071-3.493-1.243-4.111-2.91h-0.003
				c-0.062-0.172-6.426-17.147-21.237-26.435c-0.035-0.021-0.071-0.044-0.107-0.068l-0.009-0.006
				c-1.116-0.743-1.847-1.942-1.995-3.274c-0.151-1.335,0.296-2.664,1.217-3.638c0.784-0.823,8.166-8.054,26.491-8.054
				c2.51,0,4.547,2.036,4.547,4.546v33.796c0,0.586-0.039,1.166-0.083,1.743C202.123,129.864,200.128,131.782,197.757,131.782z
				 M182.883,98.953c4.17,3.469,7.625,7.355,10.407,11.118V96.674C188.741,97.059,185.325,97.991,182.883,98.953z"/>
		</g>
		<g>
			<path fill="#161616" d="M174.667,103.144c-0.829,0-1.666-0.225-2.415-0.696c-4.097-2.572-8.563-4.333-13.281-5.233
				c-2.057-0.394-3.579-2.143-3.685-4.239c-0.056-0.338-0.095-0.71-0.095-1.098c0-10.706,8.711-19.417,19.417-19.417
				c10.709,0,19.423,8.711,19.423,19.417c0,0.349-0.033,0.684-0.083,1.015c-0.056,2.199-1.663,3.821-3.836,4.156
				c-7.465,1.154-11.118,3.798-12.008,4.529C177.215,102.603,175.948,103.144,174.667,103.144z M164.632,89.215
				c3.354,0.944,6.586,2.25,9.67,3.91c2.119-1.362,5.44-3.034,10.2-4.218c-1.282-4.247-5.233-7.353-9.895-7.353
				C169.836,81.555,165.81,84.808,164.632,89.215z"/>
		</g>
		<g>
			<path fill="#161616" d="M164.215,190.998h-25.359c-1.24,0-2.426-0.506-3.284-1.403l-10.54-11.008
				c-1.736-1.811-1.674-4.691,0.139-6.426c1.812-1.738,4.689-1.678,6.429,0.139l9.198,9.605h21.499l41.948-43.052
				c-3.416-1.59-11.535-3.567-23.413-3.567c-8.782,0-22.232,3.647-26.675,6.524c-1.517,0.98-3.472,0.971-4.98-0.027
				c-4.098-2.714-16.213-6.497-26.633-6.497c-11.538,0-19.53,1.865-23.108,3.428l18.229,19.035c1.736,1.811,1.674,4.691-0.139,6.426
				c-1.813,1.735-4.691,1.672-6.429-0.139l-21.137-22.069c-0.81-0.844-1.262-1.971-1.262-3.143c0-12.02,28.195-12.63,33.847-12.63
				c10.275,0,22.414,3.194,29.173,6.592c7.274-3.546,20.333-6.592,29.115-6.592c5.13,0,28.827,0.5,33.16,9.581
				c0.337,0.373,0.616,0.802,0.817,1.282c0.71,1.684,0.343,3.632-0.932,4.94l-46.406,47.628
				C166.616,190.504,165.44,190.998,164.215,190.998z"/>
		</g>
		<g>
			<path fill="#161616" d="M154.191,141.188c-1.631,0-3.2-0.879-4.015-2.407c-2.133-4.002-3.26-8.513-3.26-13.044V91.941
				c0-2.51,2.035-4.546,4.547-4.546c34.745,0,50.246,35.463,50.794,39.29c0.044,0.314,0.056,0.631,0.036,0.947
				c-0.127,1.88-0.462,3.792-0.998,5.68c-0.639,2.253-2.862,3.658-5.189,3.232c-4.526-0.823-9.806-1.258-15.273-1.258
				c-8.045,0-19.094,2.841-24.715,5.473C155.495,141.049,154.838,141.188,154.191,141.188z M156.01,96.742v28.995
				c0,1.714,0.225,3.386,0.678,5.002c6.92-2.448,16.537-4.546,24.144-4.546c4.067,0,8.063,0.222,11.786,0.654
				C189.588,120.194,178.358,99.294,156.01,96.742z"/>
		</g>
		<g>
			<path fill="#161616" d="M205.169,138.871c-0.586,0-1.175-0.112-1.732-0.343c-1.885-0.775-4.502-1.474-7.566-2.019l0.003-0.012
				c-2.347-0.551-3.987-2.865-3.555-5.257c0.092-0.494,0.252-0.959,0.474-1.379c0.219-0.953,0.361-1.906,0.423-2.839
				c0.044-0.571,0.074-0.924,0.074-1.285V98.414c0-1.066,0.376-2.099,1.06-2.919l0.21-0.263c0.157-0.198,0.314-0.394,0.485-0.595
				c10.469-12.162,20.512-17.262,27.092-19.399c6.106-1.98,13.716-2.729,16.96,0.062c4.248,3.647,5.39,17.816-3.67,33.888
				c-1.231,2.193-4.008,2.957-6.192,1.729c-2.187-1.234-2.963-4.005-1.729-6.192c6.269-11.123,6.009-19.254,5.408-22.158
				c-4.114-0.166-16.789,1.791-30.532,17.487v25.683c0,0.586-0.039,1.166-0.083,1.743c-0.024,0.37-0.056,0.737-0.095,1.104
				c0.867,0.225,1.687,0.465,2.46,0.716c3.7-2.383,7.459-5.526,11.197-9.374c1.752-1.797,4.626-1.841,6.429-0.089
				c1.8,1.749,1.841,4.626,0.089,6.429c-4.916,5.059-9.939,9.093-14.93,11.988C206.749,138.663,205.959,138.871,205.169,138.871z
				 M234.04,82.73L234.04,82.73L234.04,82.73z M232.607,81.546L232.607,81.546L232.607,81.546z"/>
		</g>
		<g>
			<path fill="#161616" d="M148.869,140.999c-0.651,0-1.313-0.139-1.939-0.435c-5.551-2.622-15.71-5.277-24.387-5.277
				c-5.627,0-11.029,0.456-15.621,1.32c-2.313,0.426-4.569-0.965-5.211-3.223c-0.721-2.528-1.086-5.1-1.086-7.646V91.941
				c0-2.51,2.035-4.546,4.547-4.546c36.657,0,50.551,38.295,50.661,38.683c0.145,0.506,0.201,1.033,0.166,1.557
				c-0.258,3.809-1.299,7.483-3.096,10.922C152.093,140.105,150.512,140.999,148.869,140.999z M122.544,126.193
				c8.329,0,17.316,2.013,23.799,4.324c0.225-0.832,0.389-1.678,0.493-2.537c-2.072-5.032-13-28.563-37.117-31.245v29.001
				c0,0.409,0.015,0.817,0.043,1.226C113.759,126.457,118.099,126.193,122.544,126.193z"/>
		</g>
		<g>
			<path fill="#161616" d="M156.732,56.259c-7.539,0-13.673-6.136-13.673-13.675c0-7.539,6.135-13.672,13.673-13.672
				c7.539,0,13.675,6.133,13.675,13.672C170.407,50.123,164.271,56.259,156.732,56.259z M156.732,38.005
				c-2.526,0-4.581,2.054-4.581,4.579c0,2.528,2.054,4.582,4.581,4.582c2.528,0,4.582-2.054,4.582-4.582
				C161.314,40.059,159.26,38.005,156.732,38.005z"/>
		</g>
		<g>
			<path fill="#161616" d="M217.218,75.46c-6.672,0-12.1-5.429-12.1-12.103c0-6.672,5.428-12.1,12.1-12.1
				c6.675,0,12.103,5.428,12.103,12.1C229.322,70.032,223.893,75.46,217.218,75.46z M217.218,60.35c-1.658,0-3.007,1.35-3.007,3.007
				c0,1.66,1.35,3.01,3.007,3.01c1.66,0,3.01-1.35,3.01-3.01C220.229,61.699,218.879,60.35,217.218,60.35z"/>
		</g>
		<g>
			<path fill="#161616" d="M69.801,48.418c-6.672,0-12.1-5.429-12.1-12.103c0-6.672,5.429-12.1,12.1-12.1
				c6.672,0,12.1,5.428,12.1,12.1C81.901,42.99,76.472,48.418,69.801,48.418z M69.801,33.308c-1.658,0-3.007,1.35-3.007,3.007
				c0,1.66,1.35,3.01,3.007,3.01c1.658,0,3.007-1.35,3.007-3.01C72.808,34.658,71.458,33.308,69.801,33.308z"/>
		</g>
		<g>
			<path fill="#161616" d="M80.386,93.439c-6.672,0-12.1-5.429-12.1-12.103c0-6.672,5.428-12.1,12.1-12.1
				c6.673,0,12.103,5.428,12.103,12.1C92.489,88.01,87.059,93.439,80.386,93.439z M80.386,78.328c-1.658,0-3.007,1.35-3.007,3.007
				c0,1.66,1.35,3.01,3.007,3.01c1.66,0,3.01-1.35,3.01-3.01C83.396,79.678,82.046,78.328,80.386,78.328z"/>
		</g>
		<g>
			<path fill="#161616" d="M143.189,77.313c-6.408,0-11.621-5.213-11.621-11.621c0-6.405,5.212-11.618,11.621-11.618
				c6.408,0,11.621,5.212,11.621,11.618C154.81,72.101,149.597,77.313,143.189,77.313z M143.189,63.168
				c-1.394,0-2.528,1.134-2.528,2.525c0,1.394,1.134,2.528,2.528,2.528c1.394,0,2.528-1.134,2.528-2.528
				C145.717,64.301,144.583,63.168,143.189,63.168z"/>
		</g>
		<g>
			<path fill="#161616" d="M151.462,91.944v-0.003c0.012,0,0.021,0,0.033,0c0.018,0,0.03,0,0.048,0v0.003
				c1.527,0.003,2.995,0.104,4.441,0.245c0.024-0.444,0.006-0.897-0.109-1.353c-0.05-0.207-5.081-20.862,3.291-37.203
				c0.399-0.781,0.539-1.622,0.474-2.436c-0.918,0.308-1.886,0.515-2.907,0.515c-2.183,0-4.16-0.799-5.729-2.075
				c-8.883,17.496-5.127,38.047-4.156,42.504C148.298,92.027,149.814,91.947,151.462,91.944z"/>
		</g>
		<g>
			<path fill="#161616" d="M189.623,97.074c-1.146,0-2.318-0.409-3.155-1.172c-0.977-0.888-1.631-2.143-1.595-3.463
				c0.006-0.257,0.03-0.506,0.062-0.755c-0.104-5.603-4.697-10.129-10.327-10.129c-2.14,0-4.218,0.681-6.003,1.971
				c-1.439,1.039-3.354,1.143-4.902,0.269c-1.545-0.876-2.439-2.572-2.291-4.342c0.323-3.789,0.968-7.441,1.977-11.171
				c6.932-25.618,23.431-33.361,28.528-31.991c2.768,0.746,4.964,3.712,6.319,6.068c2.436,4.239,7.527,16.223,2.196,35.945
				c-1.678,6.204-3.878,11.727-6.533,16.422c-0.687,1.208-1.885,2.039-3.259,2.253l-0.459,0.059
				C189.996,97.062,189.81,97.074,189.623,97.074z M174.607,72.462c6.435,0,12.145,3.144,15.682,7.974
				c0.488-1.447,0.944-2.951,1.365-4.505c4.727-17.475,0.053-27.474-2.181-30.413c-3.644,1.477-12.633,7.873-17.304,25.139
				c-0.184,0.681-0.355,1.359-0.512,2.033C172.627,72.539,173.613,72.462,174.607,72.462z M188.732,44.715L188.732,44.715
				L188.732,44.715z"/>
		</g>
	</g>
</g>
</svg>
